<?xml version="1.0" encoding="UTF-8" standalone="no"?>
<!DOCTYPE svg PUBLIC "-//W3C//DTD SVG 1.1//EN"
 "http://www.w3.org/Graphics/SVG/1.1/DTD/svg11.dtd">
<!-- Generated by graphviz version 2.40.1 (20161225.0304)
 -->
<!-- Title: %3 Pages: 1 -->
<svg width="2246pt" height="652pt"
 viewBox="0.00 0.00 2246.00 652.00" xmlns="http://www.w3.org/2000/svg" xmlns:xlink="http://www.w3.org/1999/xlink">
<g id="graph0" class="graph" transform="scale(1 1) rotate(0) translate(4 648)">
<title>%3</title>
<polygon fill="#ffffff" stroke="transparent" points="-4,4 -4,-648 2242,-648 2242,4 -4,4"/>
<g id="clust1" class="cluster">
<title>cluster_project</title>
<polygon fill="#ffd700" stroke="#000000" points="394,-156 394,-561 659,-561 659,-156 394,-156"/>
<text text-anchor="middle" x="526.5" y="-545.8" font-family="A-OTF UD Shin Maru Go Pr6N" font-size="14.00" fill="#000000">Re:VIEWプロジェクト</text>
</g>
<!-- vivliocli -->
<g id="node1" class="node">
<title>vivliocli</title>
<polygon fill="none" stroke="#000000" points="1686,-359 1508,-359 1508,-323 1686,-323 1686,-359"/>
<text text-anchor="middle" x="1597" y="-337.3" font-family="A-OTF UD Shin Maru Go Pr6N" font-size="14.00" fill="#000000">Vivliostyle&#45;CLI CSS組版</text>
</g>
<!-- pdffile -->
<g id="node37" class="node">
<title>pdffile</title>
<polygon fill="#fff8dc" stroke="#000000" points="2122,-349 2025,-349 2025,-313 2128,-313 2128,-343 2122,-349"/>
<polyline fill="none" stroke="#000000" points="2122,-349 2122,-343 "/>
<polyline fill="none" stroke="#000000" points="2128,-343 2122,-343 "/>
<text text-anchor="middle" x="2076.5" y="-327.3" font-family="A-OTF UD Shin Maru Go Pr6N" font-size="14.00" fill="#000000">PDFファイル</text>
</g>
<!-- vivliocli&#45;&gt;pdffile -->
<g id="edge22" class="edge">
<title>vivliocli&#45;&gt;pdffile</title>
<path fill="none" stroke="#000000" d="M1686.0665,-339.1425C1781.7434,-337.1472 1931.2618,-334.029 2014.7754,-332.2873"/>
<polygon fill="#000000" stroke="#000000" points="2014.9472,-335.7845 2024.8721,-332.0767 2014.8012,-328.7861 2014.9472,-335.7845"/>
</g>
<!-- vivliocss -->
<g id="node2" class="node">
<title>vivliocss</title>
<polygon fill="none" stroke="#000000" points="1939,-449 1772,-449 1772,-413 1939,-413 1939,-449"/>
<text text-anchor="middle" x="1855.5" y="-427.3" font-family="A-OTF UD Shin Maru Go Pr6N" font-size="14.00" fill="#000000">Vivliostyle.js CSS組版</text>
</g>
<!-- vivliocss&#45;&gt;pdffile -->
<g id="edge23" class="edge">
<title>vivliocss&#45;&gt;pdffile</title>
<path fill="none" stroke="#000000" d="M1939.1191,-420.7027C1956.1351,-416.7987 1973.544,-411.4171 1989,-404 2013.0647,-392.4517 2036.0682,-372.799 2052.4447,-356.7923"/>
<polygon fill="#000000" stroke="#000000" points="2055.3507,-358.8343 2059.9273,-349.2789 2050.3907,-353.8947 2055.3507,-358.8343"/>
</g>
<!-- versacss -->
<g id="node3" class="node">
<title>versacss</title>
<polygon fill="none" stroke="#000000" points="1971,-503 1740,-503 1740,-467 1971,-467 1971,-503"/>
<text text-anchor="middle" x="1855.5" y="-481.3" font-family="A-OTF UD Shin Maru Go Pr6N" font-size="14.00" fill="#000000">VersaType Converter CSS組版</text>
</g>
<!-- versacss&#45;&gt;pdffile -->
<g id="edge24" class="edge">
<title>versacss&#45;&gt;pdffile</title>
<path fill="none" stroke="#000000" d="M1971.0801,-467.7266C1977.3496,-464.9341 1983.376,-461.7131 1989,-458 2025.9381,-433.6124 2051.6576,-387.7631 2065.2444,-358.3394"/>
<polygon fill="#000000" stroke="#000000" points="2068.5125,-359.6042 2069.3856,-349.0454 2062.1185,-356.7551 2068.5125,-359.6042"/>
</g>
<!-- ahcss -->
<g id="node4" class="node">
<title>ahcss</title>
<polygon fill="none" stroke="#000000" points="1989,-395 1722,-395 1722,-359 1989,-359 1989,-395"/>
<text text-anchor="middle" x="1855.5" y="-373.3" font-family="A-OTF UD Shin Maru Go Pr6N" font-size="14.00" fill="#000000">Antenna House Formatter CSS組版</text>
</g>
<!-- ahcss&#45;&gt;pdffile -->
<g id="edge25" class="edge">
<title>ahcss&#45;&gt;pdffile</title>
<path fill="none" stroke="#000000" d="M1942.2108,-358.9516C1966.4348,-353.9095 1992.2601,-348.5341 2014.7255,-343.858"/>
<polygon fill="#000000" stroke="#000000" points="2015.7163,-347.2269 2024.7932,-341.7625 2014.2898,-340.3738 2015.7163,-347.2269"/>
</g>
<!-- kindlegen -->
<g id="node5" class="node">
<title>kindlegen</title>
<polygon fill="none" stroke="#000000" points="1411,-553 1274,-553 1274,-517 1411,-517 1411,-553"/>
<text text-anchor="middle" x="1342.5" y="-531.3" font-family="A-OTF UD Shin Maru Go Pr6N" font-size="14.00" fill="#000000">Kindle Previewer</text>
</g>
<!-- mobi -->
<g id="node42" class="node">
<title>mobi</title>
<polygon fill="#fff8dc" stroke="#000000" points="1646,-555 1542,-555 1542,-519 1652,-519 1652,-549 1646,-555"/>
<polyline fill="none" stroke="#000000" points="1646,-555 1646,-549 "/>
<polyline fill="none" stroke="#000000" points="1652,-549 1646,-549 "/>
<text text-anchor="middle" x="1597" y="-533.3" font-family="A-OTF UD Shin Maru Go Pr6N" font-size="14.00" fill="#000000">mobiファイル</text>
</g>
<!-- kindlegen&#45;&gt;mobi -->
<g id="edge27" class="edge">
<title>kindlegen&#45;&gt;mobi</title>
<path fill="none" stroke="#000000" d="M1411.0361,-535.5386C1448.4473,-535.8326 1494.5304,-536.1947 1531.4624,-536.485"/>
<polygon fill="#000000" stroke="#000000" points="1531.5944,-539.986 1541.6216,-536.5648 1531.6495,-532.9862 1531.5944,-539.986"/>
</g>
<!-- indesign -->
<g id="node6" class="node">
<title>indesign</title>
<polygon fill="none" stroke="#000000" points="1926.5,-303 1784.5,-303 1784.5,-267 1926.5,-267 1926.5,-303"/>
<text text-anchor="middle" x="1855.5" y="-281.3" font-family="A-OTF UD Shin Maru Go Pr6N" font-size="14.00" fill="#000000">InDesign XML組版</text>
</g>
<!-- indesign&#45;&gt;pdffile -->
<g id="edge38" class="edge">
<title>indesign&#45;&gt;pdffile</title>
<path fill="none" stroke="#000000" d="M1926.6423,-299.8079C1955.0747,-305.726 1987.5061,-312.4764 2014.9097,-318.1803"/>
<polygon fill="#000000" stroke="#000000" points="2014.2582,-321.6196 2024.7616,-320.2309 2015.6847,-314.7665 2014.2582,-321.6196"/>
</g>
<!-- latex -->
<g id="node7" class="node">
<title>latex</title>
<polygon fill="none" stroke="#000000" points="1961.5,-249 1749.5,-249 1749.5,-213 1961.5,-213 1961.5,-249"/>
<text text-anchor="middle" x="1855.5" y="-227.3" font-family="A-OTF UD Shin Maru Go Pr6N" font-size="14.00" fill="#000000">LaTeX (upLaTeX/LuaLaTeX)</text>
</g>
<!-- latex&#45;&gt;pdffile -->
<g id="edge42" class="edge">
<title>latex&#45;&gt;pdffile</title>
<path fill="none" stroke="#000000" d="M1961.6785,-247.3783C1971.1225,-250.3485 1980.3659,-253.8566 1989,-258 2013.0647,-269.5483 2036.0682,-289.201 2052.4447,-305.2077"/>
<polygon fill="#000000" stroke="#000000" points="2050.3907,-308.1053 2059.9273,-312.7211 2055.3507,-303.1657 2050.3907,-308.1053"/>
</g>
<!-- pandoc2review -->
<g id="node8" class="node">
<title>pandoc2review</title>
<polygon fill="none" stroke="#000000" points="351,-320 223,-320 223,-284 351,-284 351,-320"/>
<text text-anchor="middle" x="287" y="-298.3" font-family="A-OTF UD Shin Maru Go Pr6N" font-size="14.00" fill="#000000">pandoc2review</text>
</g>
<!-- rv -->
<g id="node36" class="node">
<title>rv</title>
<polygon fill="#fff8dc" stroke="#000000" points="602.5,-212 444.5,-212 444.5,-176 608.5,-176 608.5,-206 602.5,-212"/>
<polyline fill="none" stroke="#000000" points="602.5,-212 602.5,-206 "/>
<polyline fill="none" stroke="#000000" points="608.5,-206 602.5,-206 "/>
<text text-anchor="middle" x="526.5" y="-190.3" font-family="A-OTF UD Shin Maru Go Pr6N" font-size="14.00" fill="#000000">Re:VIEWファイル(.re)</text>
</g>
<!-- pandoc2review&#45;&gt;rv -->
<g id="edge56" class="edge">
<title>pandoc2review&#45;&gt;rv</title>
<path fill="none" stroke="#000000" d="M351.3447,-290.5974C361.0255,-286.8004 370.322,-281.7409 378,-275 391.1576,-263.4482 381.0699,-250.806 394,-239 405.737,-228.2833 420.1285,-220.1052 435.0511,-213.868"/>
<polygon fill="#000000" stroke="#000000" points="436.3442,-217.1205 444.3922,-210.2299 433.8038,-210.5978 436.3442,-217.1205"/>
</g>
<!-- md2review -->
<g id="node9" class="node">
<title>md2review</title>
<polygon fill="none" stroke="#000000" points="335,-266 239,-266 239,-230 335,-230 335,-266"/>
<text text-anchor="middle" x="287" y="-244.3" font-family="A-OTF UD Shin Maru Go Pr6N" font-size="14.00" fill="#000000">md2review</text>
</g>
<!-- md2review&#45;&gt;rv -->
<g id="edge53" class="edge">
<title>md2review&#45;&gt;rv</title>
<path fill="none" stroke="#000000" d="M335.1783,-237.1373C364.146,-230.6059 401.9396,-222.0846 436.2782,-214.3423"/>
<polygon fill="#000000" stroke="#000000" points="437.3491,-217.6888 446.3343,-212.0749 435.8094,-210.8602 437.3491,-217.6888"/>
</g>
<!-- rvbuilder -->
<g id="node10" class="node">
<title>rvbuilder</title>
<polygon fill="none" stroke="#000000" points="378,-212 196,-212 196,-176 378,-176 378,-212"/>
<text text-anchor="middle" x="287" y="-190.3" font-family="A-OTF UD Shin Maru Go Pr6N" font-size="14.00" fill="#000000">Sphinx ReVIEW builder</text>
</g>
<!-- rvbuilder&#45;&gt;rv -->
<g id="edge58" class="edge">
<title>rvbuilder&#45;&gt;rv</title>
<path fill="none" stroke="#000000" d="M378.2279,-194C396.52,-194 415.7549,-194 434.0869,-194"/>
<polygon fill="#000000" stroke="#000000" points="434.1668,-197.5001 444.1667,-194 434.1667,-190.5001 434.1668,-197.5001"/>
</g>
<!-- gnuplot -->
<g id="node11" class="node">
<title>gnuplot</title>
<polygon fill="none" stroke="#000000" points="325.5,-644 248.5,-644 248.5,-608 325.5,-608 325.5,-644"/>
<text text-anchor="middle" x="287" y="-622.3" font-family="A-OTF UD Shin Maru Go Pr6N" font-size="14.00" fill="#000000">Gnuplot</text>
</g>
<!-- images -->
<g id="node32" class="node">
<title>images</title>
<polygon fill="#fff8dc" stroke="#000000" points="571.5,-500 475.5,-500 475.5,-464 577.5,-464 577.5,-494 571.5,-500"/>
<polyline fill="none" stroke="#000000" points="571.5,-500 571.5,-494 "/>
<polyline fill="none" stroke="#000000" points="577.5,-494 571.5,-494 "/>
<text text-anchor="middle" x="526.5" y="-478.3" font-family="A-OTF UD Shin Maru Go Pr6N" font-size="14.00" fill="#000000">画像ファイル</text>
</g>
<!-- gnuplot&#45;&gt;images -->
<g id="edge6" class="edge">
<title>gnuplot&#45;&gt;images</title>
<path fill="none" stroke="#000000" d="M325.8782,-617.9227C342.4915,-613.6056 361.7571,-607.4123 378,-599 425.6863,-574.3031 473.0774,-533.3823 501.0714,-507.0643"/>
<polygon fill="#000000" stroke="#000000" points="503.6063,-509.4836 508.437,-500.0541 498.7803,-504.4131 503.6063,-509.4836"/>
</g>
<!-- graphviz -->
<g id="node12" class="node">
<title>graphviz</title>
<polygon fill="none" stroke="#000000" points="327,-590 247,-590 247,-554 327,-554 327,-590"/>
<text text-anchor="middle" x="287" y="-568.3" font-family="A-OTF UD Shin Maru Go Pr6N" font-size="14.00" fill="#000000">Graphviz</text>
</g>
<!-- graphviz&#45;&gt;images -->
<g id="edge7" class="edge">
<title>graphviz&#45;&gt;images</title>
<path fill="none" stroke="#000000" d="M327.1825,-561.1356C343.1328,-556.5488 361.5602,-550.9048 378,-545 411.8623,-532.8373 449.1382,-517.0151 477.8726,-504.2699"/>
<polygon fill="#000000" stroke="#000000" points="479.5669,-507.3466 487.2726,-500.0753 476.7143,-500.9542 479.5669,-507.3466"/>
</g>
<!-- blockdiag -->
<g id="node13" class="node">
<title>blockdiag</title>
<polygon fill="none" stroke="#000000" points="330,-536 244,-536 244,-500 330,-500 330,-536"/>
<text text-anchor="middle" x="287" y="-514.3" font-family="A-OTF UD Shin Maru Go Pr6N" font-size="14.00" fill="#000000">Blockdiag</text>
</g>
<!-- blockdiag&#45;&gt;images -->
<g id="edge8" class="edge">
<title>blockdiag&#45;&gt;images</title>
<path fill="none" stroke="#000000" d="M330.0944,-511.5223C367.8723,-505.8438 423.2095,-497.5259 465.5257,-491.1652"/>
<polygon fill="#000000" stroke="#000000" points="466.0676,-494.6232 475.4362,-489.6756 465.027,-487.701 466.0676,-494.6232"/>
</g>
<!-- aafigure -->
<g id="node14" class="node">
<title>aafigure</title>
<polygon fill="none" stroke="#000000" points="324,-482 250,-482 250,-446 324,-446 324,-482"/>
<text text-anchor="middle" x="287" y="-460.3" font-family="A-OTF UD Shin Maru Go Pr6N" font-size="14.00" fill="#000000">aafigure</text>
</g>
<!-- aafigure&#45;&gt;images -->
<g id="edge9" class="edge">
<title>aafigure&#45;&gt;images</title>
<path fill="none" stroke="#000000" d="M324.1591,-466.7928C361.8243,-469.6235 420.7438,-474.0517 465.3093,-477.4011"/>
<polygon fill="#000000" stroke="#000000" points="465.2112,-480.9035 475.4454,-478.1629 465.7358,-473.9232 465.2112,-480.9035"/>
</g>
<!-- plantuml -->
<g id="node15" class="node">
<title>plantuml</title>
<polygon fill="none" stroke="#000000" points="330,-428 244,-428 244,-392 330,-392 330,-428"/>
<text text-anchor="middle" x="287" y="-406.3" font-family="A-OTF UD Shin Maru Go Pr6N" font-size="14.00" fill="#000000">PlantUML</text>
</g>
<!-- plantuml&#45;&gt;images -->
<g id="edge10" class="edge">
<title>plantuml&#45;&gt;images</title>
<path fill="none" stroke="#000000" d="M330.3112,-417.6464C346.1471,-421.7441 363.6759,-427.8935 378,-437 387.0328,-442.7426 384.725,-449.6576 394,-455 415.4418,-467.3506 441.6887,-474.108 465.1489,-477.7844"/>
<polygon fill="#000000" stroke="#000000" points="464.9659,-481.2931 475.3564,-479.2222 465.9424,-474.3615 464.9659,-481.2931"/>
</g>
<!-- acrobat -->
<g id="node16" class="node">
<title>acrobat</title>
<polygon fill="none" stroke="#000000" points="1893.5,-195 1817.5,-195 1817.5,-159 1893.5,-159 1893.5,-195"/>
<text text-anchor="middle" x="1855.5" y="-173.3" font-family="A-OTF UD Shin Maru Go Pr6N" font-size="14.00" fill="#000000">Acrobat</text>
</g>
<!-- acrobat&#45;&gt;pdffile -->
<g id="edge43" class="edge">
<title>acrobat&#45;&gt;pdffile</title>
<path fill="none" stroke="#000000" d="M1893.7788,-177.2282C1922.1642,-179.0843 1960.6826,-185.3041 1989,-204 2025.9381,-228.3876 2051.6576,-274.2369 2065.2444,-303.6606"/>
<polygon fill="#000000" stroke="#000000" points="2062.1185,-305.2449 2069.3856,-312.9546 2068.5125,-302.3958 2062.1185,-305.2449"/>
</g>
<!-- pdftoolbox -->
<g id="node17" class="node">
<title>pdftoolbox</title>
<polygon fill="none" stroke="#000000" points="1906.5,-141 1804.5,-141 1804.5,-105 1906.5,-105 1906.5,-141"/>
<text text-anchor="middle" x="1855.5" y="-119.3" font-family="A-OTF UD Shin Maru Go Pr6N" font-size="14.00" fill="#000000">pdfToolbox</text>
</g>
<!-- pdftoolbox&#45;&gt;pdffile -->
<g id="edge44" class="edge">
<title>pdftoolbox&#45;&gt;pdffile</title>
<path fill="none" stroke="#000000" d="M1906.5777,-122.7652C1933.5326,-125.0699 1965.7433,-131.9494 1989,-150 2038.6088,-188.5037 2061.7066,-262.2911 2071.0538,-302.7468"/>
<polygon fill="#000000" stroke="#000000" points="2067.6845,-303.7231 2073.2393,-312.745 2074.523,-302.2282 2067.6845,-303.7231"/>
</g>
<!-- pressready -->
<g id="node18" class="node">
<title>pressready</title>
<polygon fill="none" stroke="#000000" points="1905.5,-611 1805.5,-611 1805.5,-575 1905.5,-575 1905.5,-611"/>
<text text-anchor="middle" x="1855.5" y="-589.3" font-family="A-OTF UD Shin Maru Go Pr6N" font-size="14.00" fill="#000000">press&#45;ready</text>
</g>
<!-- pressready&#45;&gt;pdffile -->
<g id="edge45" class="edge">
<title>pressready&#45;&gt;pdffile</title>
<path fill="none" stroke="#000000" d="M1905.6383,-594.2006C1933.1323,-592.3031 1966.1663,-585.5057 1989,-566 2051.9108,-512.2583 2069.638,-408.7899 2074.5964,-359.0494"/>
<polygon fill="#000000" stroke="#000000" points="2078.0895,-359.281 2075.4944,-349.0089 2071.1174,-358.6573 2078.0895,-359.281"/>
</g>
<!-- reviewtemplate -->
<g id="node19" class="node">
<title>reviewtemplate</title>
<polygon fill="none" stroke="#000000" points="361.5,-374 212.5,-374 212.5,-338 361.5,-338 361.5,-374"/>
<text text-anchor="middle" x="287" y="-352.3" font-family="A-OTF UD Shin Maru Go Pr6N" font-size="14.00" fill="#000000">ReVIEW&#45;Template</text>
</g>
<!-- styfile -->
<g id="node34" class="node">
<title>styfile</title>
<polygon fill="#fff8dc" stroke="#000000" points="633,-356 414,-356 414,-320 639,-320 639,-350 633,-356"/>
<polyline fill="none" stroke="#000000" points="633,-356 633,-350 "/>
<polyline fill="none" stroke="#000000" points="639,-350 633,-350 "/>
<text text-anchor="middle" x="526.5" y="-334.3" font-family="A-OTF UD Shin Maru Go Pr6N" font-size="14.00" fill="#000000">TeXスタイルファイル(.cls, .sty)</text>
</g>
<!-- reviewtemplate&#45;&gt;styfile -->
<g id="edge11" class="edge">
<title>reviewtemplate&#45;&gt;styfile</title>
<path fill="none" stroke="#000000" d="M361.7941,-350.3787C368.9833,-349.8384 376.4254,-349.2791 383.9934,-348.7103"/>
<polygon fill="#000000" stroke="#000000" points="384.2946,-352.1976 394.0041,-347.9579 383.7699,-345.2173 384.2946,-352.1976"/>
</g>
<!-- init -->
<g id="node20" class="node">
<title>init</title>
<polygon fill="#b2dfee" stroke="#000000" points="145.5,-166 14.5,-166 14.5,-130 145.5,-130 145.5,-166"/>
<text text-anchor="middle" x="80" y="-144.3" font-family="A-OTF UD Shin Maru Go Pr6N" font-size="14.00" fill="#000000">作成(review&#45;init)</text>
</g>
<!-- init&#45;&gt;rv -->
<g id="edge60" class="edge">
<title>init&#45;&gt;rv</title>
<path fill="none" stroke="#000000" d="M145.6032,-149.9926C206.1188,-152.3494 298.3698,-157.2558 378,-167 379.9702,-167.2411 381.9539,-167.4916 383.9484,-167.7506"/>
<polygon fill="#000000" stroke="#000000" points="383.6206,-171.2381 394.0003,-169.1142 384.5616,-164.3017 383.6206,-171.2381"/>
</g>
<!-- update -->
<g id="node21" class="node">
<title>update</title>
<polygon fill="#b2dfee" stroke="#000000" points="160,-112 0,-112 0,-76 160,-76 160,-112"/>
<text text-anchor="middle" x="80" y="-90.3" font-family="A-OTF UD Shin Maru Go Pr6N" font-size="14.00" fill="#000000">更新(review&#45;update)</text>
</g>
<!-- update&#45;&gt;rv -->
<g id="edge61" class="edge">
<title>update&#45;&gt;rv</title>
<path fill="none" stroke="#000000" d="M160.1974,-106.3048C220.4781,-116.1563 304.8951,-131.2361 378,-149 383.6651,-150.3766 389.4337,-151.842 395.2477,-153.3714"/>
<polygon fill="#000000" stroke="#000000" points="394.4999,-156.7944 405.065,-156.0014 396.3113,-150.0329 394.4999,-156.7944"/>
</g>
<!-- preproc -->
<g id="node22" class="node">
<title>preproc</title>
<polygon fill="#b2dfee" stroke="#000000" points="377,-82 197,-82 197,-46 377,-46 377,-82"/>
<text text-anchor="middle" x="287" y="-60.3" font-family="A-OTF UD Shin Maru Go Pr6N" font-size="14.00" fill="#000000">前処理(review&#45;preproc)</text>
</g>
<!-- preproc&#45;&gt;rv -->
<g id="edge59" class="edge">
<title>preproc&#45;&gt;rv</title>
<path fill="none" stroke="#000000" d="M345.1625,-82.055C356.2677,-86.1696 367.6495,-90.8624 378,-96 420.6843,-117.1869 465.852,-148.4275 495.0089,-169.9105"/>
<polygon fill="#000000" stroke="#000000" points="493.044,-172.811 503.1576,-175.9682 497.2203,-167.1932 493.044,-172.811"/>
</g>
<!-- vol -->
<g id="node23" class="node">
<title>vol</title>
<polygon fill="#b2dfee" stroke="#000000" points="159,-36 1,-36 1,0 159,0 159,-36"/>
<text text-anchor="middle" x="80" y="-14.3" font-family="A-OTF UD Shin Maru Go Pr6N" font-size="14.00" fill="#000000">分量確認(review&#45;vol)</text>
</g>
<!-- vol&#45;&gt;rv -->
<g id="edge62" class="edge">
<title>vol&#45;&gt;rv</title>
<path fill="none" stroke="#000000" d="M159.1798,-7.7581C221.5834,-3.1958 309.2363,-4.7581 378,-37 428.7317,-60.7871 470.8109,-110.2523 497.0674,-147.3401"/>
<polygon fill="#000000" stroke="#000000" points="494.499,-149.7784 503.0735,-156.0016 500.2514,-145.7896 494.499,-149.7784"/>
</g>
<!-- epub -->
<g id="node24" class="node">
<title>epub</title>
<polygon fill="#b2dfee" stroke="#000000" points="933.5,-379 694.5,-379 694.5,-343 933.5,-343 933.5,-379"/>
<text text-anchor="middle" x="814" y="-357.3" font-family="A-OTF UD Shin Maru Go Pr6N" font-size="14.00" fill="#000000">rake epub (review&#45;epubmaker)</text>
</g>
<!-- epubfile -->
<g id="node38" class="node">
<title>epubfile</title>
<polygon fill="#fff8dc" stroke="#000000" points="1132.5,-432 1027.5,-432 1027.5,-396 1138.5,-396 1138.5,-426 1132.5,-432"/>
<polyline fill="none" stroke="#000000" points="1132.5,-432 1132.5,-426 "/>
<polyline fill="none" stroke="#000000" points="1138.5,-426 1132.5,-426 "/>
<text text-anchor="middle" x="1083" y="-410.3" font-family="A-OTF UD Shin Maru Go Pr6N" font-size="14.00" fill="#000000">EPUBファイル</text>
</g>
<!-- epub&#45;&gt;epubfile -->
<g id="edge13" class="edge">
<title>epub&#45;&gt;epubfile</title>
<path fill="none" stroke="#000000" d="M905.4465,-379.0173C942.1631,-386.2515 983.6649,-394.4284 1017.3067,-401.0567"/>
<polygon fill="#000000" stroke="#000000" points="1016.993,-404.5621 1027.481,-403.0613 1018.3462,-397.6941 1016.993,-404.5621"/>
</g>
<!-- web -->
<g id="node25" class="node">
<title>web</title>
<polygon fill="#b2dfee" stroke="#000000" points="927,-292 701,-292 701,-256 927,-256 927,-292"/>
<text text-anchor="middle" x="814" y="-270.3" font-family="A-OTF UD Shin Maru Go Pr6N" font-size="14.00" fill="#000000">rake web (review&#45;webmaker)</text>
</g>
<!-- htmlfile -->
<g id="node43" class="node">
<title>htmlfile</title>
<polygon fill="#fff8dc" stroke="#000000" points="1134.5,-294 1025.5,-294 1025.5,-258 1140.5,-258 1140.5,-288 1134.5,-294"/>
<polyline fill="none" stroke="#000000" points="1134.5,-294 1134.5,-288 "/>
<polyline fill="none" stroke="#000000" points="1140.5,-288 1134.5,-288 "/>
<text text-anchor="middle" x="1083" y="-272.3" font-family="A-OTF UD Shin Maru Go Pr6N" font-size="14.00" fill="#000000">HTMLファイル</text>
</g>
<!-- web&#45;&gt;htmlfile -->
<g id="edge33" class="edge">
<title>web&#45;&gt;htmlfile</title>
<path fill="none" stroke="#000000" d="M927.3006,-274.8424C957.089,-275.0639 988.3005,-275.2959 1014.891,-275.4936"/>
<polygon fill="#000000" stroke="#000000" points="1015.196,-278.9959 1025.2218,-275.5704 1015.2481,-271.9961 1015.196,-278.9959"/>
</g>
<!-- idgxml -->
<g id="node26" class="node">
<title>idgxml</title>
<polygon fill="#b2dfee" stroke="#000000" points="1472,-243 1213,-243 1213,-207 1472,-207 1472,-243"/>
<text text-anchor="middle" x="1342.5" y="-221.3" font-family="A-OTF UD Shin Maru Go Pr6N" font-size="14.00" fill="#000000">rake idgxml (review&#45;idgxmlmaker)</text>
</g>
<!-- idgxmlfile -->
<g id="node47" class="node">
<title>idgxmlfile</title>
<polygon fill="#fff8dc" stroke="#000000" points="1676,-292 1512,-292 1512,-256 1682,-256 1682,-286 1676,-292"/>
<polyline fill="none" stroke="#000000" points="1676,-292 1676,-286 "/>
<polyline fill="none" stroke="#000000" points="1682,-286 1676,-286 "/>
<text text-anchor="middle" x="1597" y="-270.3" font-family="A-OTF UD Shin Maru Go Pr6N" font-size="14.00" fill="#000000">InDesign XMLファイル</text>
</g>
<!-- idgxml&#45;&gt;idgxmlfile -->
<g id="edge36" class="edge">
<title>idgxml&#45;&gt;idgxmlfile</title>
<path fill="none" stroke="#000000" d="M1436.1822,-243.037C1457.5941,-247.1596 1480.3716,-251.545 1501.8446,-255.6793"/>
<polygon fill="#000000" stroke="#000000" points="1501.4566,-259.1688 1511.938,-257.6226 1502.7801,-252.2951 1501.4566,-259.1688"/>
</g>
<!-- pdf -->
<g id="node27" class="node">
<title>pdf</title>
<polygon fill="#b2dfee" stroke="#000000" points="1449.5,-189 1235.5,-189 1235.5,-153 1449.5,-153 1449.5,-189"/>
<text text-anchor="middle" x="1342.5" y="-167.3" font-family="A-OTF UD Shin Maru Go Pr6N" font-size="14.00" fill="#000000">rake pdf (review&#45;pdfmaker)</text>
</g>
<!-- latexfile -->
<g id="node48" class="node">
<title>latexfile</title>
<polygon fill="#fff8dc" stroke="#000000" points="1649.5,-211 1538.5,-211 1538.5,-175 1655.5,-175 1655.5,-205 1649.5,-211"/>
<polyline fill="none" stroke="#000000" points="1649.5,-211 1649.5,-205 "/>
<polyline fill="none" stroke="#000000" points="1655.5,-205 1649.5,-205 "/>
<text text-anchor="middle" x="1597" y="-189.3" font-family="A-OTF UD Shin Maru Go Pr6N" font-size="14.00" fill="#000000">LaTeXファイル</text>
</g>
<!-- pdf&#45;&gt;latexfile -->
<g id="edge40" class="edge">
<title>pdf&#45;&gt;latexfile</title>
<path fill="none" stroke="#000000" d="M1449.6933,-180.2662C1476.3191,-182.5679 1504.1466,-184.9734 1528.3539,-187.066"/>
<polygon fill="#000000" stroke="#000000" points="1528.2285,-190.5681 1538.4928,-187.9424 1528.8314,-183.5941 1528.2285,-190.5681"/>
</g>
<!-- epub2html -->
<g id="node28" class="node">
<title>epub2html</title>
<polygon fill="#b2dfee" stroke="#000000" points="1417,-459 1268,-459 1268,-423 1417,-423 1417,-459"/>
<text text-anchor="middle" x="1342.5" y="-437.3" font-family="A-OTF UD Shin Maru Go Pr6N" font-size="14.00" fill="#000000">review&#45;epub2html</text>
</g>
<!-- htmlfile2 -->
<g id="node44" class="node">
<title>htmlfile2</title>
<polygon fill="#fff8dc" stroke="#000000" points="1648.5,-453 1539.5,-453 1539.5,-417 1654.5,-417 1654.5,-447 1648.5,-453"/>
<polyline fill="none" stroke="#000000" points="1648.5,-453 1648.5,-447 "/>
<polyline fill="none" stroke="#000000" points="1654.5,-447 1648.5,-447 "/>
<text text-anchor="middle" x="1597" y="-431.3" font-family="A-OTF UD Shin Maru Go Pr6N" font-size="14.00" fill="#000000">HTMLファイル</text>
</g>
<!-- epub2html&#45;&gt;htmlfile2 -->
<g id="edge18" class="edge">
<title>epub2html&#45;&gt;htmlfile2</title>
<path fill="none" stroke="#000000" d="M1417.1388,-439.2403C1452.6481,-438.4032 1494.7914,-437.4096 1529.3552,-436.5948"/>
<polygon fill="#000000" stroke="#000000" points="1529.4409,-440.0938 1539.3556,-436.359 1529.2759,-433.0958 1529.4409,-440.0938"/>
</g>
<!-- plaintext -->
<g id="node29" class="node">
<title>plaintext</title>
<polygon fill="#b2dfee" stroke="#000000" points="953,-142 675,-142 675,-106 953,-106 953,-142"/>
<text text-anchor="middle" x="814" y="-120.3" font-family="A-OTF UD Shin Maru Go Pr6N" font-size="14.00" fill="#000000">rake plaintext (review&#45;textmaker &#45;n)</text>
</g>
<!-- plaintextfile -->
<g id="node45" class="node">
<title>plaintextfile</title>
<polygon fill="#fff8dc" stroke="#000000" points="1171,-136 989,-136 989,-100 1177,-100 1177,-130 1171,-136"/>
<polyline fill="none" stroke="#000000" points="1171,-136 1171,-130 "/>
<polyline fill="none" stroke="#000000" points="1177,-130 1171,-130 "/>
<text text-anchor="middle" x="1083" y="-114.3" font-family="A-OTF UD Shin Maru Go Pr6N" font-size="14.00" fill="#000000">装飾なしテキストファイル</text>
</g>
<!-- plaintext&#45;&gt;plaintextfile -->
<g id="edge48" class="edge">
<title>plaintext&#45;&gt;plaintextfile</title>
<path fill="none" stroke="#000000" d="M953.2276,-120.8946C961.7949,-120.7035 970.3366,-120.5129 978.7134,-120.3261"/>
<polygon fill="#000000" stroke="#000000" points="978.9207,-123.8224 988.8401,-120.1002 978.7645,-116.8242 978.9207,-123.8224"/>
</g>
<!-- text -->
<g id="node30" class="node">
<title>text</title>
<polygon fill="#b2dfee" stroke="#000000" points="926,-84 702,-84 702,-48 926,-48 926,-84"/>
<text text-anchor="middle" x="814" y="-62.3" font-family="A-OTF UD Shin Maru Go Pr6N" font-size="14.00" fill="#000000">rake text (review&#45;textmaker)</text>
</g>
<!-- textfile -->
<g id="node46" class="node">
<title>textfile</title>
<polygon fill="#fff8dc" stroke="#000000" points="1171,-82 989,-82 989,-46 1177,-46 1177,-76 1171,-82"/>
<polyline fill="none" stroke="#000000" points="1171,-82 1171,-76 "/>
<polyline fill="none" stroke="#000000" points="1177,-76 1171,-76 "/>
<text text-anchor="middle" x="1083" y="-60.3" font-family="A-OTF UD Shin Maru Go Pr6N" font-size="14.00" fill="#000000">装飾付きテキストファイル</text>
</g>
<!-- text&#45;&gt;textfile -->
<g id="edge50" class="edge">
<title>text&#45;&gt;textfile</title>
<path fill="none" stroke="#000000" d="M926.1323,-65.1663C943.6063,-65.0364 961.5984,-64.9026 978.8841,-64.7741"/>
<polygon fill="#000000" stroke="#000000" points="978.997,-68.2735 988.9707,-64.6991 978.9449,-61.2736 978.997,-68.2735"/>
</g>
<!-- vscli -->
<g id="node31" class="node">
<title>vscli</title>
<polygon fill="#b2dfee" stroke="#000000" points="1404.5,-405 1280.5,-405 1280.5,-369 1404.5,-369 1404.5,-405"/>
<text text-anchor="middle" x="1342.5" y="-383.3" font-family="A-OTF UD Shin Maru Go Pr6N" font-size="14.00" fill="#000000">rake vivliostyle</text>
</g>
<!-- vscli&#45;&gt;vivliocli -->
<g id="edge17" class="edge">
<title>vscli&#45;&gt;vivliocli</title>
<path fill="none" stroke="#000000" d="M1404.7577,-375.7471C1432.7756,-370.683 1466.5396,-364.5803 1497.9018,-358.9117"/>
<polygon fill="#000000" stroke="#000000" points="1498.7716,-362.3112 1507.9896,-357.0883 1497.5265,-355.4228 1498.7716,-362.3112"/>
</g>
<!-- images&#45;&gt;images -->
<!-- cssfile -->
<g id="node33" class="node">
<title>cssfile</title>
<polygon fill="#fff8dc" stroke="#000000" points="589,-428 458,-428 458,-392 595,-392 595,-422 589,-428"/>
<polyline fill="none" stroke="#000000" points="589,-428 589,-422 "/>
<polyline fill="none" stroke="#000000" points="595,-422 589,-422 "/>
<text text-anchor="middle" x="526.5" y="-406.3" font-family="A-OTF UD Shin Maru Go Pr6N" font-size="14.00" fill="#000000">CSSファイル(.css)</text>
</g>
<!-- cssfile&#45;&gt;cssfile -->
<!-- styfile&#45;&gt;styfile -->
<!-- yamlfile -->
<g id="node35" class="node">
<title>yamlfile</title>
<polygon fill="#fff8dc" stroke="#000000" points="611.5,-284 435.5,-284 435.5,-248 617.5,-248 617.5,-278 611.5,-284"/>
<polyline fill="none" stroke="#000000" points="611.5,-284 611.5,-278 "/>
<polyline fill="none" stroke="#000000" points="617.5,-278 611.5,-278 "/>
<text text-anchor="middle" x="526.5" y="-262.3" font-family="A-OTF UD Shin Maru Go Pr6N" font-size="14.00" fill="#000000">設定YAMLファイル(.yml)</text>
</g>
<!-- yamlfile&#45;&gt;yamlfile -->
<!-- rv&#45;&gt;epub -->
<g id="edge12" class="edge">
<title>rv&#45;&gt;epub</title>
<path fill="none" stroke="#000000" d="M659,-239C678.3561,-259.8619 656.4946,-279.3799 675,-301 689.4511,-317.8834 709.5189,-330.1594 729.917,-339.0297"/>
<polygon fill="#000000" stroke="#000000" points="728.7129,-342.3186 739.2933,-342.8699 731.366,-335.8409 728.7129,-342.3186"/>
</g>
<!-- rv&#45;&gt;web -->
<g id="edge32" class="edge">
<title>rv&#45;&gt;web</title>
<path fill="none" stroke="#000000" d="M658.998,-230.869C686.456,-238.5095 714.4649,-246.3033 738.9844,-253.1261"/>
<polygon fill="#000000" stroke="#000000" points="738.2878,-256.5652 748.8601,-255.8741 740.1644,-249.8214 738.2878,-256.5652"/>
</g>
<!-- rv&#45;&gt;idgxml -->
<g id="edge35" class="edge">
<title>rv&#45;&gt;idgxml</title>
<path fill="none" stroke="#000000" d="M658.9967,-199.3731C664.4022,-199.5861 669.7532,-199.7957 675,-200 857.4342,-207.1019 1067.9309,-214.9238 1202.9774,-219.8941"/>
<polygon fill="#000000" stroke="#000000" points="1202.8507,-223.3917 1212.9726,-220.2619 1203.1081,-216.3965 1202.8507,-223.3917"/>
</g>
<!-- rv&#45;&gt;pdf -->
<g id="edge39" class="edge">
<title>rv&#45;&gt;pdf</title>
<path fill="none" stroke="#000000" d="M658.9961,-190.2654C816.0328,-185.8391 1075.2657,-178.5323 1225.2886,-174.3038"/>
<polygon fill="#000000" stroke="#000000" points="1225.478,-177.7999 1235.3754,-174.0194 1225.2807,-170.8027 1225.478,-177.7999"/>
</g>
<!-- rv&#45;&gt;plaintext -->
<g id="edge46" class="edge">
<title>rv&#45;&gt;plaintext</title>
<path fill="none" stroke="#000000" d="M658.996,-161.7401C683.0658,-155.8796 707.5591,-149.916 729.7541,-144.512"/>
<polygon fill="#000000" stroke="#000000" points="730.8252,-147.8536 739.7134,-142.0872 729.1692,-141.0523 730.8252,-147.8536"/>
</g>
<!-- rv&#45;&gt;text -->
<g id="edge47" class="edge">
<title>rv&#45;&gt;text</title>
<path fill="none" stroke="#000000" d="M574.8621,-156.0033C602.742,-135.791 639.2609,-112.0692 675,-97 683.9706,-93.2176 693.47,-89.8654 703.1233,-86.9004"/>
<polygon fill="#000000" stroke="#000000" points="704.2005,-90.2321 712.8141,-84.063 702.2335,-83.5141 704.2005,-90.2321"/>
</g>
<!-- rv&#45;&gt;rv -->
<!-- pdfprint -->
<g id="node51" class="node">
<title>pdfprint</title>
<polygon fill="#ff7f50" stroke="#000000" points="2226,-370 2164,-370 2164,-346 2226,-346 2238,-358 2226,-370"/>
<text text-anchor="middle" x="2201" y="-354.3" font-family="A-OTF UD Shin Maru Go Pr6N" font-size="14.00" fill="#000000">印刷製本</text>
</g>
<!-- pdffile&#45;&gt;pdfprint -->
<g id="edge30" class="edge">
<title>pdffile&#45;&gt;pdfprint</title>
<path fill="none" stroke="#000000" d="M2128.2176,-342.2159C2136.6721,-344.0494 2145.3935,-345.9408 2153.7335,-347.7494"/>
<polygon fill="#000000" stroke="#000000" points="2153.1589,-351.2061 2163.6736,-349.9051 2154.6426,-344.3651 2153.1589,-351.2061"/>
</g>
<!-- pdfebook -->
<g id="node52" class="node">
<title>pdfebook</title>
<polygon fill="#ff7f50" stroke="#000000" points="2226,-316 2164,-316 2164,-292 2226,-292 2238,-304 2226,-316"/>
<text text-anchor="middle" x="2201" y="-300.3" font-family="A-OTF UD Shin Maru Go Pr6N" font-size="14.00" fill="#000000">電子配布</text>
</g>
<!-- pdffile&#45;&gt;pdfebook -->
<g id="edge31" class="edge">
<title>pdffile&#45;&gt;pdfebook</title>
<path fill="none" stroke="#000000" d="M2128.2176,-319.7841C2136.6721,-317.9506 2145.3935,-316.0592 2153.7335,-314.2506"/>
<polygon fill="#000000" stroke="#000000" points="2154.6426,-317.6349 2163.6736,-312.0949 2153.1589,-310.7939 2154.6426,-317.6349"/>
</g>
<!-- epubfile&#45;&gt;versacss -->
<g id="edge14" class="edge">
<title>epubfile&#45;&gt;versacss</title>
<path fill="none" stroke="#000000" d="M1116.6479,-432.0158C1142.2623,-444.7168 1178.8204,-460.7122 1213,-468 1389.4248,-505.6176 1599.2479,-502.5038 1729.9312,-495.1006"/>
<polygon fill="#000000" stroke="#000000" points="1730.2028,-498.5908 1739.9818,-494.5139 1729.7948,-491.6027 1730.2028,-498.5908"/>
</g>
<!-- epubfile&#45;&gt;kindlegen -->
<g id="edge26" class="edge">
<title>epubfile&#45;&gt;kindlegen</title>
<path fill="none" stroke="#000000" d="M1105.1143,-432.1871C1129.9499,-451.7736 1172.1449,-482.595 1213,-501 1228.9447,-508.183 1246.7022,-514.0805 1263.83,-518.8278"/>
<polygon fill="#000000" stroke="#000000" points="1263.2592,-522.2978 1273.8233,-521.4911 1265.0619,-515.5339 1263.2592,-522.2978"/>
</g>
<!-- epubfile&#45;&gt;epub2html -->
<g id="edge15" class="edge">
<title>epubfile&#45;&gt;epub2html</title>
<path fill="none" stroke="#000000" d="M1138.6693,-419.7922C1173.2565,-423.3909 1218.4057,-428.0885 1257.4182,-432.1476"/>
<polygon fill="#000000" stroke="#000000" points="1257.4094,-435.6655 1267.718,-433.2192 1258.1339,-428.703 1257.4094,-435.6655"/>
</g>
<!-- epubfile&#45;&gt;vscli -->
<g id="edge16" class="edge">
<title>epubfile&#45;&gt;vscli</title>
<path fill="none" stroke="#000000" d="M1138.6693,-408.2078C1177.0544,-404.214 1228.4483,-398.8667 1270.0255,-394.5407"/>
<polygon fill="#000000" stroke="#000000" points="1270.5129,-398.009 1280.097,-393.4928 1269.7884,-391.0466 1270.5129,-398.009"/>
</g>
<!-- toritugi -->
<g id="node54" class="node">
<title>toritugi</title>
<polygon fill="#ff7f50" stroke="#000000" points="1403,-345 1270,-345 1270,-321 1403,-321 1415,-333 1403,-345"/>
<text text-anchor="middle" x="1342.5" y="-329.3" font-family="A-OTF UD Shin Maru Go Pr6N" font-size="14.00" fill="#000000">各電子ブックストア</text>
</g>
<!-- epubfile&#45;&gt;toritugi -->
<g id="edge29" class="edge">
<title>epubfile&#45;&gt;toritugi</title>
<path fill="none" stroke="#000000" d="M1120.981,-395.9947C1146.5389,-384.4374 1181.2436,-369.8103 1213,-360 1227.94,-355.3847 1244.0933,-351.3145 1259.7578,-347.8259"/>
<polygon fill="#000000" stroke="#000000" points="1260.9297,-351.1534 1269.9633,-345.6176 1259.4492,-344.3118 1260.9297,-351.1534"/>
</g>
<!-- word -->
<g id="node39" class="node">
<title>word</title>
<polygon fill="#fff8dc" stroke="#000000" points="131.5,-328 22.5,-328 22.5,-292 137.5,-292 137.5,-322 131.5,-328"/>
<polyline fill="none" stroke="#000000" points="131.5,-328 131.5,-322 "/>
<polyline fill="none" stroke="#000000" points="137.5,-322 131.5,-322 "/>
<text text-anchor="middle" x="80" y="-306.3" font-family="A-OTF UD Shin Maru Go Pr6N" font-size="14.00" fill="#000000">Wordファイル</text>
</g>
<!-- word&#45;&gt;pandoc2review -->
<g id="edge54" class="edge">
<title>word&#45;&gt;pandoc2review</title>
<path fill="none" stroke="#000000" d="M137.661,-307.7716C160.8974,-306.8735 187.9966,-305.8262 212.6835,-304.8721"/>
<polygon fill="#000000" stroke="#000000" points="212.8763,-308.3674 222.7337,-304.4837 212.6059,-301.3726 212.8763,-308.3674"/>
</g>
<!-- markdown -->
<g id="node40" class="node">
<title>markdown</title>
<polygon fill="#fff8dc" stroke="#000000" points="149,-274 5,-274 5,-238 155,-238 155,-268 149,-274"/>
<polyline fill="none" stroke="#000000" points="149,-274 149,-268 "/>
<polyline fill="none" stroke="#000000" points="155,-268 149,-268 "/>
<text text-anchor="middle" x="80" y="-252.3" font-family="A-OTF UD Shin Maru Go Pr6N" font-size="14.00" fill="#000000">Markdownファイル</text>
</g>
<!-- markdown&#45;&gt;pandoc2review -->
<g id="edge55" class="edge">
<title>markdown&#45;&gt;pandoc2review</title>
<path fill="none" stroke="#000000" d="M155.0244,-272.6721C173.8551,-276.8567 194.0493,-281.3443 212.8377,-285.5195"/>
<polygon fill="#000000" stroke="#000000" points="212.2943,-288.984 222.8155,-287.7368 213.8129,-282.1507 212.2943,-288.984"/>
</g>
<!-- markdown&#45;&gt;md2review -->
<g id="edge52" class="edge">
<title>markdown&#45;&gt;md2review</title>
<path fill="none" stroke="#000000" d="M155.0244,-253.1005C179.3057,-252.1621 205.8544,-251.1361 228.7324,-250.2519"/>
<polygon fill="#000000" stroke="#000000" points="229.107,-253.7401 238.9643,-249.8565 228.8366,-246.7453 229.107,-253.7401"/>
</g>
<!-- sphinx -->
<g id="node41" class="node">
<title>sphinx</title>
<polygon fill="#fff8dc" stroke="#000000" points="146.5,-220 7.5,-220 7.5,-184 152.5,-184 152.5,-214 146.5,-220"/>
<polyline fill="none" stroke="#000000" points="146.5,-220 146.5,-214 "/>
<polyline fill="none" stroke="#000000" points="152.5,-214 146.5,-214 "/>
<text text-anchor="middle" x="80" y="-198.3" font-family="A-OTF UD Shin Maru Go Pr6N" font-size="14.00" fill="#000000">Sphinx rstファイル</text>
</g>
<!-- sphinx&#45;&gt;rvbuilder -->
<g id="edge57" class="edge">
<title>sphinx&#45;&gt;rvbuilder</title>
<path fill="none" stroke="#000000" d="M152.6894,-199.1907C163.3923,-198.7771 174.5788,-198.3448 185.7309,-197.9138"/>
<polygon fill="#000000" stroke="#000000" points="186.0906,-201.4026 195.9479,-197.5189 185.8202,-194.4078 186.0906,-201.4026"/>
</g>
<!-- amazon -->
<g id="node53" class="node">
<title>amazon</title>
<polygon fill="#ff7f50" stroke="#000000" points="1927,-551 1772,-551 1772,-527 1927,-527 1939,-539 1927,-551"/>
<text text-anchor="middle" x="1855.5" y="-535.3" font-family="A-OTF UD Shin Maru Go Pr6N" font-size="14.00" fill="#000000">Amazon Kindleストア</text>
</g>
<!-- mobi&#45;&gt;amazon -->
<g id="edge28" class="edge">
<title>mobi&#45;&gt;amazon</title>
<path fill="none" stroke="#000000" d="M1652.1377,-537.4266C1683.9886,-537.673 1724.9087,-537.9896 1761.6819,-538.2741"/>
<polygon fill="#000000" stroke="#000000" points="1761.9061,-541.7759 1771.9329,-538.3534 1761.9603,-534.7761 1761.9061,-541.7759"/>
</g>
<!-- website -->
<g id="node55" class="node">
<title>website</title>
<polygon fill="#ff7f50" stroke="#000000" points="1377.5,-291 1295.5,-291 1295.5,-267 1377.5,-267 1389.5,-279 1377.5,-291"/>
<text text-anchor="middle" x="1342.5" y="-275.3" font-family="A-OTF UD Shin Maru Go Pr6N" font-size="14.00" fill="#000000">Webサイト</text>
</g>
<!-- htmlfile&#45;&gt;website -->
<g id="edge34" class="edge">
<title>htmlfile&#45;&gt;website</title>
<path fill="none" stroke="#000000" d="M1140.5915,-276.6658C1183.721,-277.1644 1242.4477,-277.8433 1285.4467,-278.3404"/>
<polygon fill="#000000" stroke="#000000" points="1285.4291,-281.8404 1295.4689,-278.4563 1285.5101,-274.8408 1285.4291,-281.8404"/>
</g>
<!-- htmlfile2&#45;&gt;vivliocss -->
<g id="edge19" class="edge">
<title>htmlfile2&#45;&gt;vivliocss</title>
<path fill="none" stroke="#000000" d="M1654.6907,-434.1073C1686.2457,-433.619 1726.1101,-433.0022 1761.9875,-432.447"/>
<polygon fill="#000000" stroke="#000000" points="1762.0461,-435.9466 1771.9908,-432.2922 1761.9378,-428.9475 1762.0461,-435.9466"/>
</g>
<!-- htmlfile2&#45;&gt;versacss -->
<g id="edge20" class="edge">
<title>htmlfile2&#45;&gt;versacss</title>
<path fill="none" stroke="#000000" d="M1654.6907,-446.1587C1683.3464,-451.7014 1718.8547,-458.5696 1752.0068,-464.982"/>
<polygon fill="#000000" stroke="#000000" points="1751.7267,-468.4926 1762.2095,-466.9554 1753.0561,-461.62 1751.7267,-468.4926"/>
</g>
<!-- htmlfile2&#45;&gt;ahcss -->
<g id="edge21" class="edge">
<title>htmlfile2&#45;&gt;ahcss</title>
<path fill="none" stroke="#000000" d="M1654.7523,-420.1204C1675.8643,-414.8283 1699.9685,-408.9573 1722,-404 1732.2443,-401.6949 1742.9515,-399.3771 1753.6528,-397.1204"/>
<polygon fill="#000000" stroke="#000000" points="1754.3942,-400.5411 1763.4654,-395.0671 1752.9605,-393.6895 1754.3942,-400.5411"/>
</g>
<!-- morph -->
<g id="node50" class="node">
<title>morph</title>
<polygon fill="#ff7f50" stroke="#000000" points="1424.5,-129 1248.5,-129 1248.5,-105 1424.5,-105 1436.5,-117 1424.5,-129"/>
<text text-anchor="middle" x="1342.5" y="-113.3" font-family="A-OTF UD Shin Maru Go Pr6N" font-size="14.00" fill="#000000">形態素解析や文体チェック</text>
</g>
<!-- plaintextfile&#45;&gt;morph -->
<g id="edge49" class="edge">
<title>plaintextfile&#45;&gt;morph</title>
<path fill="none" stroke="#000000" d="M1177.0524,-117.6376C1196.9058,-117.5611 1217.9683,-117.4799 1238.1746,-117.402"/>
<polygon fill="#000000" stroke="#000000" points="1238.3465,-120.9015 1248.3329,-117.3629 1238.3195,-113.9015 1238.3465,-120.9015"/>
</g>
<!-- handdtp -->
<g id="node49" class="node">
<title>handdtp</title>
<polygon fill="#ff7f50" stroke="#000000" points="1439.5,-75 1233.5,-75 1233.5,-51 1439.5,-51 1451.5,-63 1439.5,-75"/>
<text text-anchor="middle" x="1342.5" y="-59.3" font-family="A-OTF UD Shin Maru Go Pr6N" font-size="14.00" fill="#000000">出版社や手動DTPへの提出草稿</text>
</g>
<!-- textfile&#45;&gt;handdtp -->
<g id="edge51" class="edge">
<title>textfile&#45;&gt;handdtp</title>
<path fill="none" stroke="#000000" d="M1177.0524,-63.6376C1192.0444,-63.5798 1207.7259,-63.5194 1223.2076,-63.4597"/>
<polygon fill="#000000" stroke="#000000" points="1223.3568,-66.9593 1233.3432,-63.4206 1223.3297,-59.9593 1223.3568,-66.9593"/>
</g>
<!-- idgxmlfile&#45;&gt;indesign -->
<g id="edge37" class="edge">
<title>idgxmlfile&#45;&gt;indesign</title>
<path fill="none" stroke="#000000" d="M1682.0006,-277.617C1711.6182,-278.8774 1744.7613,-280.2877 1774.0812,-281.5354"/>
<polygon fill="#000000" stroke="#000000" points="1774.1407,-285.041 1784.2805,-281.9694 1774.4383,-278.0473 1774.1407,-285.041"/>
</g>
<!-- latexfile&#45;&gt;latex -->
<g id="edge41" class="edge">
<title>latexfile&#45;&gt;latex</title>
<path fill="none" stroke="#000000" d="M1655.6577,-201.6228C1680.4423,-205.2662 1710.2226,-209.6439 1739.1343,-213.894"/>
<polygon fill="#000000" stroke="#000000" points="1738.9122,-217.3989 1749.3149,-215.3906 1739.9303,-210.4733 1738.9122,-217.3989"/>
</g>
</g>
</svg>
