<?xml version="1.0" encoding="UTF-8" standalone="no"?>
<!DOCTYPE svg PUBLIC "-//W3C//DTD SVG 1.1//EN"
 "http://www.w3.org/Graphics/SVG/1.1/DTD/svg11.dtd">
<!-- Generated by graphviz version 2.40.1 (20161225.0304)
 -->
<!-- Title: %3 Pages: 1 -->
<svg width="2238pt" height="598pt"
 viewBox="0.00 0.00 2238.00 598.00" xmlns="http://www.w3.org/2000/svg" xmlns:xlink="http://www.w3.org/1999/xlink">
<g id="graph0" class="graph" transform="scale(1 1) rotate(0) translate(4 594)">
<title>%3</title>
<polygon fill="#ffffff" stroke="transparent" points="-4,4 -4,-594 2234,-594 2234,4 -4,4"/>
<g id="clust1" class="cluster">
<title>cluster_project</title>
<polygon fill="#ffd700" stroke="#000000" points="394,-115 394,-520 659,-520 659,-115 394,-115"/>
<text text-anchor="middle" x="526.5" y="-504.8" font-family="A-OTF UD Shin Maru Go Pr6N" font-size="14.00" fill="#000000">Re:VIEWプロジェクト</text>
</g>
<!-- vivliocss -->
<g id="node1" class="node">
<title>vivliocss</title>
<polygon fill="none" stroke="#000000" points="1931,-253 1764,-253 1764,-217 1931,-217 1931,-253"/>
<text text-anchor="middle" x="1847.5" y="-231.3" font-family="A-OTF UD Shin Maru Go Pr6N" font-size="14.00" fill="#000000">Vivliostyle.js CSS組版</text>
</g>
<!-- pdffile -->
<g id="node34" class="node">
<title>pdffile</title>
<polygon fill="#fff8dc" stroke="#000000" points="2114,-334 2017,-334 2017,-298 2120,-298 2120,-328 2114,-334"/>
<polyline fill="none" stroke="#000000" points="2114,-334 2114,-328 "/>
<polyline fill="none" stroke="#000000" points="2120,-328 2114,-328 "/>
<text text-anchor="middle" x="2068.5" y="-312.3" font-family="A-OTF UD Shin Maru Go Pr6N" font-size="14.00" fill="#000000">PDFファイル</text>
</g>
<!-- vivliocss&#45;&gt;pdffile -->
<g id="edge20" class="edge">
<title>vivliocss&#45;&gt;pdffile</title>
<path fill="none" stroke="#000000" d="M1931.0729,-247.1779C1947.9207,-250.9396 1965.2755,-255.7878 1981,-262 2000.3313,-269.6371 2020.179,-281.4981 2036.0742,-292.1609"/>
<polygon fill="#000000" stroke="#000000" points="2034.2452,-295.1506 2044.4699,-297.9269 2038.2082,-289.3804 2034.2452,-295.1506"/>
</g>
<!-- versacss -->
<g id="node2" class="node">
<title>versacss</title>
<polygon fill="none" stroke="#000000" points="1963,-361 1732,-361 1732,-325 1963,-325 1963,-361"/>
<text text-anchor="middle" x="1847.5" y="-339.3" font-family="A-OTF UD Shin Maru Go Pr6N" font-size="14.00" fill="#000000">VersaType Converter CSS組版</text>
</g>
<!-- versacss&#45;&gt;pdffile -->
<g id="edge21" class="edge">
<title>versacss&#45;&gt;pdffile</title>
<path fill="none" stroke="#000000" d="M1963.178,-328.8674C1978.158,-327.0373 1993.0109,-325.2227 2006.6321,-323.5585"/>
<polygon fill="#000000" stroke="#000000" points="2007.2882,-327.0045 2016.79,-322.3175 2006.4393,-320.0561 2007.2882,-327.0045"/>
</g>
<!-- ahcss -->
<g id="node3" class="node">
<title>ahcss</title>
<polygon fill="none" stroke="#000000" points="1981,-307 1714,-307 1714,-271 1981,-271 1981,-307"/>
<text text-anchor="middle" x="1847.5" y="-285.3" font-family="A-OTF UD Shin Maru Go Pr6N" font-size="14.00" fill="#000000">Antenna House Formatter CSS組版</text>
</g>
<!-- ahcss&#45;&gt;pdffile -->
<g id="edge22" class="edge">
<title>ahcss&#45;&gt;pdffile</title>
<path fill="none" stroke="#000000" d="M1981.1549,-305.3289C1989.9752,-306.4065 1998.5894,-307.4589 2006.7589,-308.457"/>
<polygon fill="#000000" stroke="#000000" points="2006.5003,-311.9513 2016.851,-309.6899 2007.3493,-305.003 2006.5003,-311.9513"/>
</g>
<!-- kindlegen -->
<g id="node4" class="node">
<title>kindlegen</title>
<polygon fill="none" stroke="#000000" points="1386,-484 1299,-484 1299,-448 1386,-448 1386,-484"/>
<text text-anchor="middle" x="1342.5" y="-462.3" font-family="A-OTF UD Shin Maru Go Pr6N" font-size="14.00" fill="#000000">kindlegen</text>
</g>
<!-- mobi -->
<g id="node38" class="node">
<title>mobi</title>
<polygon fill="#fff8dc" stroke="#000000" points="1642,-515 1538,-515 1538,-479 1648,-479 1648,-509 1642,-515"/>
<polyline fill="none" stroke="#000000" points="1642,-515 1642,-509 "/>
<polyline fill="none" stroke="#000000" points="1648,-509 1642,-509 "/>
<text text-anchor="middle" x="1593" y="-493.3" font-family="A-OTF UD Shin Maru Go Pr6N" font-size="14.00" fill="#000000">mobiファイル</text>
</g>
<!-- kindlegen&#45;&gt;mobi -->
<g id="edge24" class="edge">
<title>kindlegen&#45;&gt;mobi</title>
<path fill="none" stroke="#000000" d="M1386.1338,-471.3998C1425.1475,-476.2278 1482.8738,-483.3716 1527.4403,-488.8868"/>
<polygon fill="#000000" stroke="#000000" points="1527.246,-492.3894 1537.6002,-490.1441 1528.1058,-485.4424 1527.246,-492.3894"/>
</g>
<!-- indesign -->
<g id="node5" class="node">
<title>indesign</title>
<polygon fill="none" stroke="#000000" points="1918.5,-199 1776.5,-199 1776.5,-163 1918.5,-163 1918.5,-199"/>
<text text-anchor="middle" x="1847.5" y="-177.3" font-family="A-OTF UD Shin Maru Go Pr6N" font-size="14.00" fill="#000000">InDesign XML組版</text>
</g>
<!-- indesign&#45;&gt;pdffile -->
<g id="edge35" class="edge">
<title>indesign&#45;&gt;pdffile</title>
<path fill="none" stroke="#000000" d="M1918.7597,-186.1662C1939.9192,-190.0698 1962.3938,-196.7273 1981,-208 2013.5355,-227.7119 2039.1804,-264.0997 2054.0839,-289.1514"/>
<polygon fill="#000000" stroke="#000000" points="2051.0533,-290.9025 2059.0815,-297.8162 2057.117,-287.4051 2051.0533,-290.9025"/>
</g>
<!-- latex -->
<g id="node6" class="node">
<title>latex</title>
<polygon fill="none" stroke="#000000" points="1448.5,-145 1236.5,-145 1236.5,-109 1448.5,-109 1448.5,-145"/>
<text text-anchor="middle" x="1342.5" y="-123.3" font-family="A-OTF UD Shin Maru Go Pr6N" font-size="14.00" fill="#000000">LaTeX (upLaTeX/LuaLaTeX)</text>
</g>
<!-- latex&#45;&gt;pdffile -->
<g id="edge39" class="edge">
<title>latex&#45;&gt;pdffile</title>
<path fill="none" stroke="#000000" d="M1448.6236,-119.1428C1606.8229,-109.4638 1895.1054,-100.2782 1981,-154 2029.058,-184.0573 2052.5216,-250.2043 2062.4042,-288.0211"/>
<polygon fill="#000000" stroke="#000000" points="2059.0442,-289.014 2064.8406,-297.8826 2065.8399,-287.335 2059.0442,-289.014"/>
</g>
<!-- md2review -->
<g id="node7" class="node">
<title>md2review</title>
<polygon fill="none" stroke="#000000" points="335,-266 239,-266 239,-230 335,-230 335,-266"/>
<text text-anchor="middle" x="287" y="-244.3" font-family="A-OTF UD Shin Maru Go Pr6N" font-size="14.00" fill="#000000">md2review</text>
</g>
<!-- rv -->
<g id="node33" class="node">
<title>rv</title>
<polygon fill="#fff8dc" stroke="#000000" points="602.5,-171 444.5,-171 444.5,-135 608.5,-135 608.5,-165 602.5,-171"/>
<polyline fill="none" stroke="#000000" points="602.5,-171 602.5,-165 "/>
<polyline fill="none" stroke="#000000" points="608.5,-165 602.5,-165 "/>
<text text-anchor="middle" x="526.5" y="-149.3" font-family="A-OTF UD Shin Maru Go Pr6N" font-size="14.00" fill="#000000">Re:VIEWファイル(.re)</text>
</g>
<!-- md2review&#45;&gt;rv -->
<g id="edge50" class="edge">
<title>md2review&#45;&gt;rv</title>
<path fill="none" stroke="#000000" d="M335.1185,-240.1468C349.8398,-236.1226 365.4442,-230.0724 378,-221 388.0932,-213.707 384.0508,-205.4883 394,-198 406.779,-188.3818 421.7484,-180.7345 436.9364,-174.6805"/>
<polygon fill="#000000" stroke="#000000" points="438.2799,-177.9146 446.4037,-171.1135 435.8118,-171.3641 438.2799,-177.9146"/>
</g>
<!-- rvbuilder -->
<g id="node8" class="node">
<title>rvbuilder</title>
<polygon fill="none" stroke="#000000" points="378,-212 196,-212 196,-176 378,-176 378,-212"/>
<text text-anchor="middle" x="287" y="-190.3" font-family="A-OTF UD Shin Maru Go Pr6N" font-size="14.00" fill="#000000">Sphinx ReVIEW builder</text>
</g>
<!-- rvbuilder&#45;&gt;rv -->
<g id="edge52" class="edge">
<title>rvbuilder&#45;&gt;rv</title>
<path fill="none" stroke="#000000" d="M378.2279,-178.3827C396.52,-175.2513 415.7549,-171.9584 434.0869,-168.8202"/>
<polygon fill="#000000" stroke="#000000" points="434.9007,-172.2319 444.1667,-167.0946 433.7195,-165.3323 434.9007,-172.2319"/>
</g>
<!-- gnuplot -->
<g id="node9" class="node">
<title>gnuplot</title>
<polygon fill="none" stroke="#000000" points="325.5,-374 248.5,-374 248.5,-338 325.5,-338 325.5,-374"/>
<text text-anchor="middle" x="287" y="-352.3" font-family="A-OTF UD Shin Maru Go Pr6N" font-size="14.00" fill="#000000">Gnuplot</text>
</g>
<!-- images -->
<g id="node29" class="node">
<title>images</title>
<polygon fill="#fff8dc" stroke="#000000" points="571.5,-459 475.5,-459 475.5,-423 577.5,-423 577.5,-453 571.5,-459"/>
<polyline fill="none" stroke="#000000" points="571.5,-459 571.5,-453 "/>
<polyline fill="none" stroke="#000000" points="577.5,-453 571.5,-453 "/>
<text text-anchor="middle" x="526.5" y="-437.3" font-family="A-OTF UD Shin Maru Go Pr6N" font-size="14.00" fill="#000000">画像ファイル</text>
</g>
<!-- gnuplot&#45;&gt;images -->
<g id="edge6" class="edge">
<title>gnuplot&#45;&gt;images</title>
<path fill="none" stroke="#000000" d="M325.6669,-360.4572C343.2087,-364.1252 363.2736,-370.8116 378,-383 389.9443,-392.8858 381.6352,-404.6455 394,-414 414.2315,-429.306 440.9922,-436.501 465.165,-439.7054"/>
<polygon fill="#000000" stroke="#000000" points="465.012,-443.2101 475.3398,-440.8465 465.7922,-436.2537 465.012,-443.2101"/>
</g>
<!-- graphviz -->
<g id="node10" class="node">
<title>graphviz</title>
<polygon fill="none" stroke="#000000" points="327,-590 247,-590 247,-554 327,-554 327,-590"/>
<text text-anchor="middle" x="287" y="-568.3" font-family="A-OTF UD Shin Maru Go Pr6N" font-size="14.00" fill="#000000">Graphviz</text>
</g>
<!-- graphviz&#45;&gt;images -->
<g id="edge7" class="edge">
<title>graphviz&#45;&gt;images</title>
<path fill="none" stroke="#000000" d="M327.006,-563.1189C343.2713,-558.7507 361.9717,-552.7364 378,-545 422.6325,-523.4571 468.5396,-489.0709 497.2687,-465.7902"/>
<polygon fill="#000000" stroke="#000000" points="499.7408,-468.2895 505.2565,-459.2436 495.3036,-462.8755 499.7408,-468.2895"/>
</g>
<!-- blockdiag -->
<g id="node11" class="node">
<title>blockdiag</title>
<polygon fill="none" stroke="#000000" points="330,-536 244,-536 244,-500 330,-500 330,-536"/>
<text text-anchor="middle" x="287" y="-514.3" font-family="A-OTF UD Shin Maru Go Pr6N" font-size="14.00" fill="#000000">Blockdiag</text>
</g>
<!-- blockdiag&#45;&gt;images -->
<g id="edge8" class="edge">
<title>blockdiag&#45;&gt;images</title>
<path fill="none" stroke="#000000" d="M330.1484,-505.5467C345.3132,-501.0776 362.4463,-495.9241 378,-491 406.9882,-481.8227 438.9719,-471.1277 465.8094,-461.9897"/>
<polygon fill="#000000" stroke="#000000" points="467.1158,-465.2422 475.4489,-458.6993 464.8544,-458.6175 467.1158,-465.2422"/>
</g>
<!-- aafigure -->
<g id="node12" class="node">
<title>aafigure</title>
<polygon fill="none" stroke="#000000" points="324,-482 250,-482 250,-446 324,-446 324,-482"/>
<text text-anchor="middle" x="287" y="-460.3" font-family="A-OTF UD Shin Maru Go Pr6N" font-size="14.00" fill="#000000">aafigure</text>
</g>
<!-- aafigure&#45;&gt;images -->
<g id="edge9" class="edge">
<title>aafigure&#45;&gt;images</title>
<path fill="none" stroke="#000000" d="M324.1591,-460.4315C361.8243,-456.8144 420.7438,-451.1561 465.3093,-446.8764"/>
<polygon fill="#000000" stroke="#000000" points="465.8258,-450.3429 475.4454,-445.9029 465.1566,-443.375 465.8258,-450.3429"/>
</g>
<!-- plantuml -->
<g id="node13" class="node">
<title>plantuml</title>
<polygon fill="none" stroke="#000000" points="330,-428 244,-428 244,-392 330,-392 330,-428"/>
<text text-anchor="middle" x="287" y="-406.3" font-family="A-OTF UD Shin Maru Go Pr6N" font-size="14.00" fill="#000000">PlantUML</text>
</g>
<!-- plantuml&#45;&gt;images -->
<g id="edge10" class="edge">
<title>plantuml&#45;&gt;images</title>
<path fill="none" stroke="#000000" d="M330.0944,-415.578C367.7926,-420.4575 422.9761,-427.6002 465.2577,-433.073"/>
<polygon fill="#000000" stroke="#000000" points="465.0696,-436.5778 475.4362,-434.3905 465.9682,-429.6357 465.0696,-436.5778"/>
</g>
<!-- acrobat -->
<g id="node14" class="node">
<title>acrobat</title>
<polygon fill="none" stroke="#000000" points="1885.5,-523 1809.5,-523 1809.5,-487 1885.5,-487 1885.5,-523"/>
<text text-anchor="middle" x="1847.5" y="-501.3" font-family="A-OTF UD Shin Maru Go Pr6N" font-size="14.00" fill="#000000">Acrobat</text>
</g>
<!-- acrobat&#45;&gt;pdffile -->
<g id="edge40" class="edge">
<title>acrobat&#45;&gt;pdffile</title>
<path fill="none" stroke="#000000" d="M1885.7892,-505.6707C1914.5488,-504.3193 1953.5435,-498.3387 1981,-478 2026.0027,-444.6638 2050.3908,-381.0776 2061.3023,-344.2619"/>
<polygon fill="#000000" stroke="#000000" points="2064.7952,-344.7718 2064.1465,-334.1968 2058.059,-342.8682 2064.7952,-344.7718"/>
</g>
<!-- pdftoolbox -->
<g id="node15" class="node">
<title>pdftoolbox</title>
<polygon fill="none" stroke="#000000" points="1898.5,-469 1796.5,-469 1796.5,-433 1898.5,-433 1898.5,-469"/>
<text text-anchor="middle" x="1847.5" y="-447.3" font-family="A-OTF UD Shin Maru Go Pr6N" font-size="14.00" fill="#000000">pdfToolbox</text>
</g>
<!-- pdftoolbox&#45;&gt;pdffile -->
<g id="edge41" class="edge">
<title>pdftoolbox&#45;&gt;pdffile</title>
<path fill="none" stroke="#000000" d="M1898.6593,-448.8386C1924.8506,-445.7813 1956.3266,-438.9486 1981,-424 2013.5355,-404.2881 2039.1804,-367.9003 2054.0839,-342.8486"/>
<polygon fill="#000000" stroke="#000000" points="2057.117,-344.5949 2059.0815,-334.1838 2051.0533,-341.0975 2057.117,-344.5949"/>
</g>
<!-- pressready -->
<g id="node16" class="node">
<title>pressready</title>
<polygon fill="none" stroke="#000000" points="1897.5,-415 1797.5,-415 1797.5,-379 1897.5,-379 1897.5,-415"/>
<text text-anchor="middle" x="1847.5" y="-393.3" font-family="A-OTF UD Shin Maru Go Pr6N" font-size="14.00" fill="#000000">press&#45;ready</text>
</g>
<!-- pressready&#45;&gt;pdffile -->
<g id="edge42" class="edge">
<title>pressready&#45;&gt;pdffile</title>
<path fill="none" stroke="#000000" d="M1897.5195,-391.1643C1923.1096,-387.1197 1954.3893,-380.5129 1981,-370 2000.3313,-362.3629 2020.179,-350.5019 2036.0742,-339.8391"/>
<polygon fill="#000000" stroke="#000000" points="2038.2082,-342.6196 2044.4699,-334.0731 2034.2452,-336.8494 2038.2082,-342.6196"/>
</g>
<!-- reviewtemplate -->
<g id="node17" class="node">
<title>reviewtemplate</title>
<polygon fill="none" stroke="#000000" points="361.5,-320 212.5,-320 212.5,-284 361.5,-284 361.5,-320"/>
<text text-anchor="middle" x="287" y="-298.3" font-family="A-OTF UD Shin Maru Go Pr6N" font-size="14.00" fill="#000000">ReVIEW&#45;Template</text>
</g>
<!-- styfile -->
<g id="node31" class="node">
<title>styfile</title>
<polygon fill="#fff8dc" stroke="#000000" points="633,-315 414,-315 414,-279 639,-279 639,-309 633,-315"/>
<polyline fill="none" stroke="#000000" points="633,-315 633,-309 "/>
<polyline fill="none" stroke="#000000" points="639,-309 633,-309 "/>
<text text-anchor="middle" x="526.5" y="-293.3" font-family="A-OTF UD Shin Maru Go Pr6N" font-size="14.00" fill="#000000">TeXスタイルファイル(.cls, .sty)</text>
</g>
<!-- reviewtemplate&#45;&gt;styfile -->
<g id="edge11" class="edge">
<title>reviewtemplate&#45;&gt;styfile</title>
<path fill="none" stroke="#000000" d="M361.7941,-300.4385C368.9833,-300.2884 376.4254,-300.1331 383.9934,-299.9751"/>
<polygon fill="#000000" stroke="#000000" points="384.0794,-303.4742 394.0041,-299.7661 383.9332,-296.4757 384.0794,-303.4742"/>
</g>
<!-- init -->
<g id="node18" class="node">
<title>init</title>
<polygon fill="#b2dfee" stroke="#000000" points="145.5,-166 14.5,-166 14.5,-130 145.5,-130 145.5,-166"/>
<text text-anchor="middle" x="80" y="-144.3" font-family="A-OTF UD Shin Maru Go Pr6N" font-size="14.00" fill="#000000">作成(review&#45;init)</text>
</g>
<!-- init&#45;&gt;rv -->
<g id="edge54" class="edge">
<title>init&#45;&gt;rv</title>
<path fill="none" stroke="#000000" d="M145.8826,-148.7378C208.2645,-149.4363 304.0001,-150.5084 383.8476,-151.4025"/>
<polygon fill="#000000" stroke="#000000" points="383.9632,-154.904 394.0018,-151.5163 384.0416,-147.9044 383.9632,-154.904"/>
</g>
<!-- update -->
<g id="node19" class="node">
<title>update</title>
<polygon fill="#b2dfee" stroke="#000000" points="160,-112 0,-112 0,-76 160,-76 160,-112"/>
<text text-anchor="middle" x="80" y="-90.3" font-family="A-OTF UD Shin Maru Go Pr6N" font-size="14.00" fill="#000000">更新(review&#45;update)</text>
</g>
<!-- update&#45;&gt;rv -->
<g id="edge55" class="edge">
<title>update&#45;&gt;rv</title>
<path fill="none" stroke="#000000" d="M160.0829,-104.5821C222.1275,-112.7806 309.6892,-124.3509 383.6581,-134.125"/>
<polygon fill="#000000" stroke="#000000" points="383.6288,-137.6515 394.0012,-135.4918 384.5459,-130.7118 383.6288,-137.6515"/>
</g>
<!-- preproc -->
<g id="node20" class="node">
<title>preproc</title>
<polygon fill="#b2dfee" stroke="#000000" points="377,-82 197,-82 197,-46 377,-46 377,-82"/>
<text text-anchor="middle" x="287" y="-60.3" font-family="A-OTF UD Shin Maru Go Pr6N" font-size="14.00" fill="#000000">前処理(review&#45;preproc)</text>
</g>
<!-- preproc&#45;&gt;rv -->
<g id="edge53" class="edge">
<title>preproc&#45;&gt;rv</title>
<path fill="none" stroke="#000000" d="M339.0636,-82.0226C351.8232,-86.5181 365.4254,-91.3768 378,-96 408.8365,-107.3373 443.0843,-120.4478 470.9127,-131.2347"/>
<polygon fill="#000000" stroke="#000000" points="469.8833,-134.5895 480.4721,-134.9465 472.4171,-128.0641 469.8833,-134.5895"/>
</g>
<!-- vol -->
<g id="node21" class="node">
<title>vol</title>
<polygon fill="#b2dfee" stroke="#000000" points="159,-36 1,-36 1,0 159,0 159,-36"/>
<text text-anchor="middle" x="80" y="-14.3" font-family="A-OTF UD Shin Maru Go Pr6N" font-size="14.00" fill="#000000">分量確認(review&#45;vol)</text>
</g>
<!-- vol&#45;&gt;rv -->
<g id="edge56" class="edge">
<title>vol&#45;&gt;rv</title>
<path fill="none" stroke="#000000" d="M159.2269,-10.5776C220.8726,-7.7162 307.4972,-10.1881 378,-37 418.0358,-52.2254 455.9633,-82.2196 483.4668,-107.8932"/>
<polygon fill="#000000" stroke="#000000" points="481.2834,-110.6469 490.9408,-115.004 486.1084,-105.5755 481.2834,-110.6469"/>
</g>
<!-- epub -->
<g id="node22" class="node">
<title>epub</title>
<polygon fill="#b2dfee" stroke="#000000" points="933.5,-331 694.5,-331 694.5,-295 933.5,-295 933.5,-331"/>
<text text-anchor="middle" x="814" y="-309.3" font-family="A-OTF UD Shin Maru Go Pr6N" font-size="14.00" fill="#000000">rake epub (review&#45;epubmaker)</text>
</g>
<!-- epubfile -->
<g id="node35" class="node">
<title>epubfile</title>
<polygon fill="#fff8dc" stroke="#000000" points="1132.5,-361 1027.5,-361 1027.5,-325 1138.5,-325 1138.5,-355 1132.5,-361"/>
<polyline fill="none" stroke="#000000" points="1132.5,-361 1132.5,-355 "/>
<polyline fill="none" stroke="#000000" points="1138.5,-355 1132.5,-355 "/>
<text text-anchor="middle" x="1083" y="-339.3" font-family="A-OTF UD Shin Maru Go Pr6N" font-size="14.00" fill="#000000">EPUBファイル</text>
</g>
<!-- epub&#45;&gt;epubfile -->
<g id="edge13" class="edge">
<title>epub&#45;&gt;epubfile</title>
<path fill="none" stroke="#000000" d="M933.5539,-326.3331C962.2891,-329.5378 991.9457,-332.8452 1017.1897,-335.6606"/>
<polygon fill="#000000" stroke="#000000" points="1017.0323,-339.1646 1027.3586,-336.7946 1017.8082,-332.2078 1017.0323,-339.1646"/>
</g>
<!-- web -->
<g id="node23" class="node">
<title>web</title>
<polygon fill="#b2dfee" stroke="#000000" points="927,-244 701,-244 701,-208 927,-208 927,-244"/>
<text text-anchor="middle" x="814" y="-222.3" font-family="A-OTF UD Shin Maru Go Pr6N" font-size="14.00" fill="#000000">rake web (review&#45;webmaker)</text>
</g>
<!-- htmlfile -->
<g id="node39" class="node">
<title>htmlfile</title>
<polygon fill="#fff8dc" stroke="#000000" points="1134.5,-245 1025.5,-245 1025.5,-209 1140.5,-209 1140.5,-239 1134.5,-245"/>
<polyline fill="none" stroke="#000000" points="1134.5,-245 1134.5,-239 "/>
<polyline fill="none" stroke="#000000" points="1140.5,-239 1134.5,-239 "/>
<text text-anchor="middle" x="1083" y="-223.3" font-family="A-OTF UD Shin Maru Go Pr6N" font-size="14.00" fill="#000000">HTMLファイル</text>
</g>
<!-- web&#45;&gt;htmlfile -->
<g id="edge30" class="edge">
<title>web&#45;&gt;htmlfile</title>
<path fill="none" stroke="#000000" d="M927.3006,-226.4212C957.089,-226.5319 988.3005,-226.648 1014.891,-226.7468"/>
<polygon fill="#000000" stroke="#000000" points="1015.2088,-230.2479 1025.2218,-226.7852 1015.2349,-223.248 1015.2088,-230.2479"/>
</g>
<!-- idgxml -->
<g id="node24" class="node">
<title>idgxml</title>
<polygon fill="#b2dfee" stroke="#000000" points="1472,-199 1213,-199 1213,-163 1472,-163 1472,-199"/>
<text text-anchor="middle" x="1342.5" y="-177.3" font-family="A-OTF UD Shin Maru Go Pr6N" font-size="14.00" fill="#000000">rake idgxml (review&#45;idgxmlmaker)</text>
</g>
<!-- idgxmlfile -->
<g id="node43" class="node">
<title>idgxmlfile</title>
<polygon fill="#fff8dc" stroke="#000000" points="1672,-199 1508,-199 1508,-163 1678,-163 1678,-193 1672,-199"/>
<polyline fill="none" stroke="#000000" points="1672,-199 1672,-193 "/>
<polyline fill="none" stroke="#000000" points="1678,-193 1672,-193 "/>
<text text-anchor="middle" x="1593" y="-177.3" font-family="A-OTF UD Shin Maru Go Pr6N" font-size="14.00" fill="#000000">InDesign XMLファイル</text>
</g>
<!-- idgxml&#45;&gt;idgxmlfile -->
<g id="edge33" class="edge">
<title>idgxml&#45;&gt;idgxmlfile</title>
<path fill="none" stroke="#000000" d="M1472.1525,-181C1480.7247,-181 1489.2694,-181 1497.6256,-181"/>
<polygon fill="#000000" stroke="#000000" points="1497.7142,-184.5001 1507.7142,-181 1497.7141,-177.5001 1497.7142,-184.5001"/>
</g>
<!-- pdf -->
<g id="node25" class="node">
<title>pdf</title>
<polygon fill="#b2dfee" stroke="#000000" points="921,-147 707,-147 707,-111 921,-111 921,-147"/>
<text text-anchor="middle" x="814" y="-125.3" font-family="A-OTF UD Shin Maru Go Pr6N" font-size="14.00" fill="#000000">rake pdf (review&#45;pdfmaker)</text>
</g>
<!-- latexfile -->
<g id="node44" class="node">
<title>latexfile</title>
<polygon fill="#fff8dc" stroke="#000000" points="1135.5,-146 1024.5,-146 1024.5,-110 1141.5,-110 1141.5,-140 1135.5,-146"/>
<polyline fill="none" stroke="#000000" points="1135.5,-146 1135.5,-140 "/>
<polyline fill="none" stroke="#000000" points="1141.5,-140 1135.5,-140 "/>
<text text-anchor="middle" x="1083" y="-124.3" font-family="A-OTF UD Shin Maru Go Pr6N" font-size="14.00" fill="#000000">LaTeXファイル</text>
</g>
<!-- pdf&#45;&gt;latexfile -->
<g id="edge37" class="edge">
<title>pdf&#45;&gt;latexfile</title>
<path fill="none" stroke="#000000" d="M921.0889,-128.6019C952.4063,-128.4855 985.7944,-128.3614 1014.0659,-128.2563"/>
<polygon fill="#000000" stroke="#000000" points="1014.25,-131.7557 1024.2369,-128.2185 1014.224,-124.7557 1014.25,-131.7557"/>
</g>
<!-- epub2html -->
<g id="node26" class="node">
<title>epub2html</title>
<polygon fill="#b2dfee" stroke="#000000" points="1417,-361 1268,-361 1268,-325 1417,-325 1417,-361"/>
<text text-anchor="middle" x="1342.5" y="-339.3" font-family="A-OTF UD Shin Maru Go Pr6N" font-size="14.00" fill="#000000">review&#45;epub2html</text>
</g>
<!-- htmlfile2 -->
<g id="node40" class="node">
<title>htmlfile2</title>
<polygon fill="#fff8dc" stroke="#000000" points="1644.5,-334 1535.5,-334 1535.5,-298 1650.5,-298 1650.5,-328 1644.5,-334"/>
<polyline fill="none" stroke="#000000" points="1644.5,-334 1644.5,-328 "/>
<polyline fill="none" stroke="#000000" points="1650.5,-328 1644.5,-328 "/>
<text text-anchor="middle" x="1593" y="-312.3" font-family="A-OTF UD Shin Maru Go Pr6N" font-size="14.00" fill="#000000">HTMLファイル</text>
</g>
<!-- epub2html&#45;&gt;htmlfile2 -->
<g id="edge16" class="edge">
<title>epub2html&#45;&gt;htmlfile2</title>
<path fill="none" stroke="#000000" d="M1417.3189,-334.9357C1451.5498,-331.2461 1491.8137,-326.9063 1525.1535,-323.3128"/>
<polygon fill="#000000" stroke="#000000" points="1525.6963,-326.7746 1535.2637,-322.2231 1524.9461,-319.815 1525.6963,-326.7746"/>
</g>
<!-- plaintext -->
<g id="node27" class="node">
<title>plaintext</title>
<polygon fill="#b2dfee" stroke="#000000" points="953,-93 675,-93 675,-57 953,-57 953,-93"/>
<text text-anchor="middle" x="814" y="-71.3" font-family="A-OTF UD Shin Maru Go Pr6N" font-size="14.00" fill="#000000">rake plaintext (review&#45;textmaker &#45;n)</text>
</g>
<!-- plaintextfile -->
<g id="node41" class="node">
<title>plaintextfile</title>
<polygon fill="#fff8dc" stroke="#000000" points="1171,-91 989,-91 989,-55 1177,-55 1177,-85 1171,-91"/>
<polyline fill="none" stroke="#000000" points="1171,-91 1171,-85 "/>
<polyline fill="none" stroke="#000000" points="1177,-85 1171,-85 "/>
<text text-anchor="middle" x="1083" y="-69.3" font-family="A-OTF UD Shin Maru Go Pr6N" font-size="14.00" fill="#000000">装飾なしテキストファイル</text>
</g>
<!-- plaintext&#45;&gt;plaintextfile -->
<g id="edge45" class="edge">
<title>plaintext&#45;&gt;plaintextfile</title>
<path fill="none" stroke="#000000" d="M953.2276,-73.9649C961.7949,-73.9012 970.3366,-73.8376 978.7134,-73.7754"/>
<polygon fill="#000000" stroke="#000000" points="978.8664,-77.2744 988.8401,-73.7001 978.8143,-70.2746 978.8664,-77.2744"/>
</g>
<!-- text -->
<g id="node28" class="node">
<title>text</title>
<polygon fill="#b2dfee" stroke="#000000" points="926,-39 702,-39 702,-3 926,-3 926,-39"/>
<text text-anchor="middle" x="814" y="-17.3" font-family="A-OTF UD Shin Maru Go Pr6N" font-size="14.00" fill="#000000">rake text (review&#45;textmaker)</text>
</g>
<!-- textfile -->
<g id="node42" class="node">
<title>textfile</title>
<polygon fill="#fff8dc" stroke="#000000" points="1171,-37 989,-37 989,-1 1177,-1 1177,-31 1171,-37"/>
<polyline fill="none" stroke="#000000" points="1171,-37 1171,-31 "/>
<polyline fill="none" stroke="#000000" points="1177,-31 1171,-31 "/>
<text text-anchor="middle" x="1083" y="-15.3" font-family="A-OTF UD Shin Maru Go Pr6N" font-size="14.00" fill="#000000">装飾付きテキストファイル</text>
</g>
<!-- text&#45;&gt;textfile -->
<g id="edge47" class="edge">
<title>text&#45;&gt;textfile</title>
<path fill="none" stroke="#000000" d="M926.1323,-20.1663C943.6063,-20.0364 961.5984,-19.9026 978.8841,-19.7741"/>
<polygon fill="#000000" stroke="#000000" points="978.997,-23.2735 988.9707,-19.6991 978.9449,-16.2736 978.997,-23.2735"/>
</g>
<!-- images&#45;&gt;images -->
<!-- cssfile -->
<g id="node30" class="node">
<title>cssfile</title>
<polygon fill="#fff8dc" stroke="#000000" points="589,-387 458,-387 458,-351 595,-351 595,-381 589,-387"/>
<polyline fill="none" stroke="#000000" points="589,-387 589,-381 "/>
<polyline fill="none" stroke="#000000" points="595,-381 589,-381 "/>
<text text-anchor="middle" x="526.5" y="-365.3" font-family="A-OTF UD Shin Maru Go Pr6N" font-size="14.00" fill="#000000">CSSファイル(.css)</text>
</g>
<!-- cssfile&#45;&gt;cssfile -->
<!-- styfile&#45;&gt;styfile -->
<!-- yamlfile -->
<g id="node32" class="node">
<title>yamlfile</title>
<polygon fill="#fff8dc" stroke="#000000" points="611.5,-243 435.5,-243 435.5,-207 617.5,-207 617.5,-237 611.5,-243"/>
<polyline fill="none" stroke="#000000" points="611.5,-243 611.5,-237 "/>
<polyline fill="none" stroke="#000000" points="617.5,-237 611.5,-237 "/>
<text text-anchor="middle" x="526.5" y="-221.3" font-family="A-OTF UD Shin Maru Go Pr6N" font-size="14.00" fill="#000000">設定YAMLファイル(.yml)</text>
</g>
<!-- yamlfile&#45;&gt;yamlfile -->
<!-- rv&#45;&gt;epub -->
<g id="edge12" class="edge">
<title>rv&#45;&gt;epub</title>
<path fill="none" stroke="#000000" d="M659,-198C676.5982,-216.3957 658.1524,-233.9145 675,-253 689.9335,-269.9171 710.4834,-282.2355 731.2033,-291.1371"/>
<polygon fill="#000000" stroke="#000000" points="730.1332,-294.4798 740.7157,-294.9908 732.7616,-287.992 730.1332,-294.4798"/>
</g>
<!-- rv&#45;&gt;web -->
<g id="edge29" class="edge">
<title>rv&#45;&gt;web</title>
<path fill="none" stroke="#000000" d="M658.9991,-186.6432C684.2371,-193.0515 709.9406,-199.578 732.972,-205.4259"/>
<polygon fill="#000000" stroke="#000000" points="732.1999,-208.8409 742.7537,-207.9096 733.9227,-202.0562 732.1999,-208.8409"/>
</g>
<!-- rv&#45;&gt;idgxml -->
<g id="edge32" class="edge">
<title>rv&#45;&gt;idgxml</title>
<path fill="none" stroke="#000000" d="M658.9966,-157.5465C808.4825,-162.6759 1050.5726,-170.9829 1202.9138,-176.2103"/>
<polygon fill="#000000" stroke="#000000" points="1202.8754,-179.7109 1212.9896,-176.556 1203.1155,-172.715 1202.8754,-179.7109"/>
</g>
<!-- rv&#45;&gt;pdf -->
<g id="edge36" class="edge">
<title>rv&#45;&gt;pdf</title>
<path fill="none" stroke="#000000" d="M658.995,-141.9395C671.6505,-140.8831 684.423,-139.8169 696.917,-138.7739"/>
<polygon fill="#000000" stroke="#000000" points="697.2359,-142.2595 706.9101,-137.9397 696.6536,-135.2838 697.2359,-142.2595"/>
</g>
<!-- rv&#45;&gt;plaintext -->
<g id="edge43" class="edge">
<title>rv&#45;&gt;plaintext</title>
<path fill="none" stroke="#000000" d="M631.2598,-115.0006C645.8534,-110.3007 660.7329,-105.8158 675,-102 683.8073,-99.6445 692.9799,-97.4048 702.2272,-95.2968"/>
<polygon fill="#000000" stroke="#000000" points="703.2753,-98.6493 712.277,-93.0619 701.7557,-91.8163 703.2753,-98.6493"/>
</g>
<!-- rv&#45;&gt;text -->
<g id="edge44" class="edge">
<title>rv&#45;&gt;text</title>
<path fill="none" stroke="#000000" d="M569.6477,-115.0044C597.7998,-92.1964 636.3768,-64.4963 675,-48 680.5035,-45.6494 686.2172,-43.5017 692.0514,-41.5396"/>
<polygon fill="#000000" stroke="#000000" points="693.4851,-44.7574 701.9678,-38.4096 691.3781,-38.082 693.4851,-44.7574"/>
</g>
<!-- rv&#45;&gt;rv -->
<!-- pdfprint -->
<g id="node47" class="node">
<title>pdfprint</title>
<polygon fill="#ff7f50" stroke="#000000" points="2218,-355 2156,-355 2156,-331 2218,-331 2230,-343 2218,-355"/>
<text text-anchor="middle" x="2193" y="-339.3" font-family="A-OTF UD Shin Maru Go Pr6N" font-size="14.00" fill="#000000">印刷製本</text>
</g>
<!-- pdffile&#45;&gt;pdfprint -->
<g id="edge27" class="edge">
<title>pdffile&#45;&gt;pdfprint</title>
<path fill="none" stroke="#000000" d="M2120.2176,-327.2159C2128.6721,-329.0494 2137.3935,-330.9408 2145.7335,-332.7494"/>
<polygon fill="#000000" stroke="#000000" points="2145.1589,-336.2061 2155.6736,-334.9051 2146.6426,-329.3651 2145.1589,-336.2061"/>
</g>
<!-- pdfebook -->
<g id="node48" class="node">
<title>pdfebook</title>
<polygon fill="#ff7f50" stroke="#000000" points="2218,-301 2156,-301 2156,-277 2218,-277 2230,-289 2218,-301"/>
<text text-anchor="middle" x="2193" y="-285.3" font-family="A-OTF UD Shin Maru Go Pr6N" font-size="14.00" fill="#000000">電子配布</text>
</g>
<!-- pdffile&#45;&gt;pdfebook -->
<g id="edge28" class="edge">
<title>pdffile&#45;&gt;pdfebook</title>
<path fill="none" stroke="#000000" d="M2120.2176,-304.7841C2128.6721,-302.9506 2137.3935,-301.0592 2145.7335,-299.2506"/>
<polygon fill="#000000" stroke="#000000" points="2146.6426,-302.6349 2155.6736,-297.0949 2145.1589,-295.7939 2146.6426,-302.6349"/>
</g>
<!-- epubfile&#45;&gt;versacss -->
<g id="edge14" class="edge">
<title>epubfile&#45;&gt;versacss</title>
<path fill="none" stroke="#000000" d="M1138.5981,-357.1586C1161.4785,-362.3005 1188.3499,-367.4672 1213,-370 1388.9309,-388.0769 1593.5012,-372.8998 1721.7485,-359.0446"/>
<polygon fill="#000000" stroke="#000000" points="1722.4381,-362.4901 1731.9978,-357.9226 1721.6763,-355.5317 1722.4381,-362.4901"/>
</g>
<!-- epubfile&#45;&gt;kindlegen -->
<g id="edge23" class="edge">
<title>epubfile&#45;&gt;kindlegen</title>
<path fill="none" stroke="#000000" d="M1121.0114,-361.017C1167.1684,-382.8948 1245.0368,-419.8036 1295.0749,-443.521"/>
<polygon fill="#000000" stroke="#000000" points="1293.8514,-446.8144 1304.3869,-447.9348 1296.8497,-440.4889 1293.8514,-446.8144"/>
</g>
<!-- epubfile&#45;&gt;epub2html -->
<g id="edge15" class="edge">
<title>epubfile&#45;&gt;epub2html</title>
<path fill="none" stroke="#000000" d="M1138.6693,-343C1173.2565,-343 1218.4057,-343 1257.4182,-343"/>
<polygon fill="#000000" stroke="#000000" points="1257.718,-346.5001 1267.718,-343 1257.7179,-339.5001 1257.718,-346.5001"/>
</g>
<!-- toritugi -->
<g id="node50" class="node">
<title>toritugi</title>
<polygon fill="#ff7f50" stroke="#000000" points="1403,-301 1270,-301 1270,-277 1403,-277 1415,-289 1403,-301"/>
<text text-anchor="middle" x="1342.5" y="-285.3" font-family="A-OTF UD Shin Maru Go Pr6N" font-size="14.00" fill="#000000">各電子ブックストア</text>
</g>
<!-- epubfile&#45;&gt;toritugi -->
<g id="edge26" class="edge">
<title>epubfile&#45;&gt;toritugi</title>
<path fill="none" stroke="#000000" d="M1138.6693,-331.4156C1173.9529,-324.0734 1220.2279,-314.4439 1259.7669,-306.2161"/>
<polygon fill="#000000" stroke="#000000" points="1260.5861,-309.6207 1269.6633,-304.1568 1259.1599,-302.7675 1260.5861,-309.6207"/>
</g>
<!-- markdown -->
<g id="node36" class="node">
<title>markdown</title>
<polygon fill="#fff8dc" stroke="#000000" points="149,-274 5,-274 5,-238 155,-238 155,-268 149,-274"/>
<polyline fill="none" stroke="#000000" points="149,-274 149,-268 "/>
<polyline fill="none" stroke="#000000" points="155,-268 149,-268 "/>
<text text-anchor="middle" x="80" y="-252.3" font-family="A-OTF UD Shin Maru Go Pr6N" font-size="14.00" fill="#000000">Markdownファイル</text>
</g>
<!-- markdown&#45;&gt;md2review -->
<g id="edge49" class="edge">
<title>markdown&#45;&gt;md2review</title>
<path fill="none" stroke="#000000" d="M155.0244,-253.1005C179.3057,-252.1621 205.8544,-251.1361 228.7324,-250.2519"/>
<polygon fill="#000000" stroke="#000000" points="229.107,-253.7401 238.9643,-249.8565 228.8366,-246.7453 229.107,-253.7401"/>
</g>
<!-- sphinx -->
<g id="node37" class="node">
<title>sphinx</title>
<polygon fill="#fff8dc" stroke="#000000" points="146.5,-220 7.5,-220 7.5,-184 152.5,-184 152.5,-214 146.5,-220"/>
<polyline fill="none" stroke="#000000" points="146.5,-220 146.5,-214 "/>
<polyline fill="none" stroke="#000000" points="152.5,-214 146.5,-214 "/>
<text text-anchor="middle" x="80" y="-198.3" font-family="A-OTF UD Shin Maru Go Pr6N" font-size="14.00" fill="#000000">Sphinx rstファイル</text>
</g>
<!-- sphinx&#45;&gt;rvbuilder -->
<g id="edge51" class="edge">
<title>sphinx&#45;&gt;rvbuilder</title>
<path fill="none" stroke="#000000" d="M152.6894,-199.1907C163.3923,-198.7771 174.5788,-198.3448 185.7309,-197.9138"/>
<polygon fill="#000000" stroke="#000000" points="186.0906,-201.4026 195.9479,-197.5189 185.8202,-194.4078 186.0906,-201.4026"/>
</g>
<!-- amazon -->
<g id="node49" class="node">
<title>amazon</title>
<polygon fill="#ff7f50" stroke="#000000" points="1919,-571 1764,-571 1764,-547 1919,-547 1931,-559 1919,-571"/>
<text text-anchor="middle" x="1847.5" y="-555.3" font-family="A-OTF UD Shin Maru Go Pr6N" font-size="14.00" fill="#000000">Amazon Kindleストア</text>
</g>
<!-- mobi&#45;&gt;amazon -->
<g id="edge25" class="edge">
<title>mobi&#45;&gt;amazon</title>
<path fill="none" stroke="#000000" d="M1648.1618,-513.9894C1668.7275,-520.0499 1692.3368,-526.6857 1714,-532 1726.936,-535.1734 1740.6426,-538.2574 1754.1544,-541.1379"/>
<polygon fill="#000000" stroke="#000000" points="1753.4385,-544.5638 1763.9449,-543.1976 1754.8797,-537.7138 1753.4385,-544.5638"/>
</g>
<!-- website -->
<g id="node51" class="node">
<title>website</title>
<polygon fill="#ff7f50" stroke="#000000" points="1377.5,-247 1295.5,-247 1295.5,-223 1377.5,-223 1389.5,-235 1377.5,-247"/>
<text text-anchor="middle" x="1342.5" y="-231.3" font-family="A-OTF UD Shin Maru Go Pr6N" font-size="14.00" fill="#000000">Webサイト</text>
</g>
<!-- htmlfile&#45;&gt;website -->
<g id="edge31" class="edge">
<title>htmlfile&#45;&gt;website</title>
<path fill="none" stroke="#000000" d="M1140.5915,-228.7755C1183.721,-230.1051 1242.4477,-231.9155 1285.4467,-233.2411"/>
<polygon fill="#000000" stroke="#000000" points="1285.3658,-236.7402 1295.4689,-233.5501 1285.5815,-229.7435 1285.3658,-236.7402"/>
</g>
<!-- htmlfile2&#45;&gt;vivliocss -->
<g id="edge17" class="edge">
<title>htmlfile2&#45;&gt;vivliocss</title>
<path fill="none" stroke="#000000" d="M1627.9324,-297.9405C1651.6781,-286.2858 1684.093,-271.5687 1714,-262 1726.7767,-257.9121 1740.4465,-254.3101 1753.9863,-251.1794"/>
<polygon fill="#000000" stroke="#000000" points="1754.8128,-254.5811 1763.8078,-248.9828 1753.2849,-247.7498 1754.8128,-254.5811"/>
</g>
<!-- htmlfile2&#45;&gt;versacss -->
<g id="edge18" class="edge">
<title>htmlfile2&#45;&gt;versacss</title>
<path fill="none" stroke="#000000" d="M1650.75,-322.1267C1671.9536,-324.3762 1696.871,-327.0197 1721.714,-329.6553"/>
<polygon fill="#000000" stroke="#000000" points="1721.6548,-333.1686 1731.9683,-330.7432 1722.3934,-326.2077 1721.6548,-333.1686"/>
</g>
<!-- htmlfile2&#45;&gt;ahcss -->
<g id="edge19" class="edge">
<title>htmlfile2&#45;&gt;ahcss</title>
<path fill="none" stroke="#000000" d="M1650.75,-309.8733C1666.8487,-308.1654 1685.0882,-306.2303 1703.8106,-304.2441"/>
<polygon fill="#000000" stroke="#000000" points="1704.3674,-307.7047 1713.9423,-303.1692 1703.6289,-300.7438 1704.3674,-307.7047"/>
</g>
<!-- morph -->
<g id="node46" class="node">
<title>morph</title>
<polygon fill="#ff7f50" stroke="#000000" points="1424.5,-85 1248.5,-85 1248.5,-61 1424.5,-61 1436.5,-73 1424.5,-85"/>
<text text-anchor="middle" x="1342.5" y="-69.3" font-family="A-OTF UD Shin Maru Go Pr6N" font-size="14.00" fill="#000000">形態素解析や文体チェック</text>
</g>
<!-- plaintextfile&#45;&gt;morph -->
<g id="edge46" class="edge">
<title>plaintextfile&#45;&gt;morph</title>
<path fill="none" stroke="#000000" d="M1177.0524,-73C1196.9058,-73 1217.9683,-73 1238.1746,-73"/>
<polygon fill="#000000" stroke="#000000" points="1238.333,-76.5001 1248.3329,-73 1238.3329,-69.5001 1238.333,-76.5001"/>
</g>
<!-- handdtp -->
<g id="node45" class="node">
<title>handdtp</title>
<polygon fill="#ff7f50" stroke="#000000" points="1439.5,-31 1233.5,-31 1233.5,-7 1439.5,-7 1451.5,-19 1439.5,-31"/>
<text text-anchor="middle" x="1342.5" y="-15.3" font-family="A-OTF UD Shin Maru Go Pr6N" font-size="14.00" fill="#000000">出版社や手動DTPへの提出草稿</text>
</g>
<!-- textfile&#45;&gt;handdtp -->
<g id="edge48" class="edge">
<title>textfile&#45;&gt;handdtp</title>
<path fill="none" stroke="#000000" d="M1177.0524,-19C1192.0444,-19 1207.7259,-19 1223.2076,-19"/>
<polygon fill="#000000" stroke="#000000" points="1223.3432,-22.5001 1233.3432,-19 1223.3431,-15.5001 1223.3432,-22.5001"/>
</g>
<!-- idgxmlfile&#45;&gt;indesign -->
<g id="edge34" class="edge">
<title>idgxmlfile&#45;&gt;indesign</title>
<path fill="none" stroke="#000000" d="M1678.0986,-181C1706.5407,-181 1738.15,-181 1766.288,-181"/>
<polygon fill="#000000" stroke="#000000" points="1766.4854,-184.5001 1776.4853,-181 1766.4853,-177.5001 1766.4854,-184.5001"/>
</g>
<!-- latexfile&#45;&gt;latex -->
<g id="edge38" class="edge">
<title>latexfile&#45;&gt;latex</title>
<path fill="none" stroke="#000000" d="M1141.5604,-127.7743C1166.6329,-127.6777 1196.842,-127.5613 1226.1318,-127.4484"/>
<polygon fill="#000000" stroke="#000000" points="1226.4573,-130.9473 1236.4437,-127.4087 1226.4302,-123.9474 1226.4573,-130.9473"/>
</g>
</g>
</svg>
