<?xml version="1.0" encoding="UTF-8" standalone="no"?>
<!DOCTYPE svg PUBLIC "-//W3C//DTD SVG 1.1//EN"
 "http://www.w3.org/Graphics/SVG/1.1/DTD/svg11.dtd">
<!-- Generated by graphviz version 2.40.1 (20161225.0304)
 -->
<!-- Title: %3 Pages: 1 -->
<svg width="2270pt" height="598pt"
 viewBox="0.00 0.00 2270.00 598.00" xmlns="http://www.w3.org/2000/svg" xmlns:xlink="http://www.w3.org/1999/xlink">
<g id="graph0" class="graph" transform="scale(1 1) rotate(0) translate(4 594)">
<title>%3</title>
<polygon fill="#ffffff" stroke="transparent" points="-4,4 -4,-594 2266,-594 2266,4 -4,4"/>
<g id="clust1" class="cluster">
<title>cluster_project</title>
<polygon fill="#ffd700" stroke="#000000" points="426,-115 426,-520 691,-520 691,-115 426,-115"/>
<text text-anchor="middle" x="558.5" y="-504.8" font-family="A-OTF UD Shin Maru Go Pr6N" font-size="14.00" fill="#000000">Re:VIEWプロジェクト</text>
</g>
<!-- vivliocss -->
<g id="node1" class="node">
<title>vivliocss</title>
<polygon fill="none" stroke="#000000" points="1963,-253 1796,-253 1796,-217 1963,-217 1963,-253"/>
<text text-anchor="middle" x="1879.5" y="-231.3" font-family="A-OTF UD Shin Maru Go Pr6N" font-size="14.00" fill="#000000">Vivliostyle.js CSS組版</text>
</g>
<!-- pdffile -->
<g id="node34" class="node">
<title>pdffile</title>
<polygon fill="#fff8dc" stroke="#000000" points="2146,-334 2049,-334 2049,-298 2152,-298 2152,-328 2146,-334"/>
<polyline fill="none" stroke="#000000" points="2146,-334 2146,-328 "/>
<polyline fill="none" stroke="#000000" points="2152,-328 2146,-328 "/>
<text text-anchor="middle" x="2100.5" y="-312.3" font-family="A-OTF UD Shin Maru Go Pr6N" font-size="14.00" fill="#000000">PDFファイル</text>
</g>
<!-- vivliocss&#45;&gt;pdffile -->
<g id="edge20" class="edge">
<title>vivliocss&#45;&gt;pdffile</title>
<path fill="none" stroke="#000000" d="M1963.0729,-247.1779C1979.9207,-250.9396 1997.2755,-255.7878 2013,-262 2032.3313,-269.6371 2052.179,-281.4981 2068.0742,-292.1609"/>
<polygon fill="#000000" stroke="#000000" points="2066.2452,-295.1506 2076.4699,-297.9269 2070.2082,-289.3804 2066.2452,-295.1506"/>
</g>
<!-- versacss -->
<g id="node2" class="node">
<title>versacss</title>
<polygon fill="none" stroke="#000000" points="1995,-361 1764,-361 1764,-325 1995,-325 1995,-361"/>
<text text-anchor="middle" x="1879.5" y="-339.3" font-family="A-OTF UD Shin Maru Go Pr6N" font-size="14.00" fill="#000000">VersaType Converter CSS組版</text>
</g>
<!-- versacss&#45;&gt;pdffile -->
<g id="edge21" class="edge">
<title>versacss&#45;&gt;pdffile</title>
<path fill="none" stroke="#000000" d="M1995.178,-328.8674C2010.158,-327.0373 2025.0109,-325.2227 2038.6321,-323.5585"/>
<polygon fill="#000000" stroke="#000000" points="2039.2882,-327.0045 2048.79,-322.3175 2038.4393,-320.0561 2039.2882,-327.0045"/>
</g>
<!-- ahcss -->
<g id="node3" class="node">
<title>ahcss</title>
<polygon fill="none" stroke="#000000" points="2013,-307 1746,-307 1746,-271 2013,-271 2013,-307"/>
<text text-anchor="middle" x="1879.5" y="-285.3" font-family="A-OTF UD Shin Maru Go Pr6N" font-size="14.00" fill="#000000">Antenna House Formatter CSS組版</text>
</g>
<!-- ahcss&#45;&gt;pdffile -->
<g id="edge22" class="edge">
<title>ahcss&#45;&gt;pdffile</title>
<path fill="none" stroke="#000000" d="M2013.1549,-305.3289C2021.9752,-306.4065 2030.5894,-307.4589 2038.7589,-308.457"/>
<polygon fill="#000000" stroke="#000000" points="2038.5003,-311.9513 2048.851,-309.6899 2039.3493,-305.003 2038.5003,-311.9513"/>
</g>
<!-- kindlegen -->
<g id="node4" class="node">
<title>kindlegen</title>
<polygon fill="none" stroke="#000000" points="1418,-484 1331,-484 1331,-448 1418,-448 1418,-484"/>
<text text-anchor="middle" x="1374.5" y="-462.3" font-family="A-OTF UD Shin Maru Go Pr6N" font-size="14.00" fill="#000000">kindlegen</text>
</g>
<!-- mobi -->
<g id="node38" class="node">
<title>mobi</title>
<polygon fill="#fff8dc" stroke="#000000" points="1674,-515 1570,-515 1570,-479 1680,-479 1680,-509 1674,-515"/>
<polyline fill="none" stroke="#000000" points="1674,-515 1674,-509 "/>
<polyline fill="none" stroke="#000000" points="1680,-509 1674,-509 "/>
<text text-anchor="middle" x="1625" y="-493.3" font-family="A-OTF UD Shin Maru Go Pr6N" font-size="14.00" fill="#000000">mobiファイル</text>
</g>
<!-- kindlegen&#45;&gt;mobi -->
<g id="edge24" class="edge">
<title>kindlegen&#45;&gt;mobi</title>
<path fill="none" stroke="#000000" d="M1418.1338,-471.3998C1457.1475,-476.2278 1514.8738,-483.3716 1559.4403,-488.8868"/>
<polygon fill="#000000" stroke="#000000" points="1559.246,-492.3894 1569.6002,-490.1441 1560.1058,-485.4424 1559.246,-492.3894"/>
</g>
<!-- indesign -->
<g id="node5" class="node">
<title>indesign</title>
<polygon fill="none" stroke="#000000" points="1950.5,-199 1808.5,-199 1808.5,-163 1950.5,-163 1950.5,-199"/>
<text text-anchor="middle" x="1879.5" y="-177.3" font-family="A-OTF UD Shin Maru Go Pr6N" font-size="14.00" fill="#000000">InDesign XML組版</text>
</g>
<!-- indesign&#45;&gt;pdffile -->
<g id="edge35" class="edge">
<title>indesign&#45;&gt;pdffile</title>
<path fill="none" stroke="#000000" d="M1950.7597,-186.1662C1971.9192,-190.0698 1994.3938,-196.7273 2013,-208 2045.5355,-227.7119 2071.1804,-264.0997 2086.0839,-289.1514"/>
<polygon fill="#000000" stroke="#000000" points="2083.0533,-290.9025 2091.0815,-297.8162 2089.117,-287.4051 2083.0533,-290.9025"/>
</g>
<!-- latex -->
<g id="node6" class="node">
<title>latex</title>
<polygon fill="none" stroke="#000000" points="1480.5,-145 1268.5,-145 1268.5,-109 1480.5,-109 1480.5,-145"/>
<text text-anchor="middle" x="1374.5" y="-123.3" font-family="A-OTF UD Shin Maru Go Pr6N" font-size="14.00" fill="#000000">LaTeX (upLaTeX/LuaLaTeX)</text>
</g>
<!-- latex&#45;&gt;pdffile -->
<g id="edge39" class="edge">
<title>latex&#45;&gt;pdffile</title>
<path fill="none" stroke="#000000" d="M1480.6236,-119.1428C1638.8229,-109.4638 1927.1054,-100.2782 2013,-154 2061.058,-184.0573 2084.5216,-250.2043 2094.4042,-288.0211"/>
<polygon fill="#000000" stroke="#000000" points="2091.0442,-289.014 2096.8406,-297.8826 2097.8399,-287.335 2091.0442,-289.014"/>
</g>
<!-- md2review -->
<g id="node7" class="node">
<title>md2review</title>
<polygon fill="none" stroke="#000000" points="410,-266 196,-266 196,-230 410,-230 410,-266"/>
<text text-anchor="middle" x="303" y="-244.3" font-family="A-OTF UD Shin Maru Go Pr6N" font-size="14.00" fill="#000000">pandoc2review/md2review</text>
</g>
<!-- rv -->
<g id="node33" class="node">
<title>rv</title>
<polygon fill="#fff8dc" stroke="#000000" points="634.5,-171 476.5,-171 476.5,-135 640.5,-135 640.5,-165 634.5,-171"/>
<polyline fill="none" stroke="#000000" points="634.5,-171 634.5,-165 "/>
<polyline fill="none" stroke="#000000" points="640.5,-165 634.5,-165 "/>
<text text-anchor="middle" x="558.5" y="-149.3" font-family="A-OTF UD Shin Maru Go Pr6N" font-size="14.00" fill="#000000">Re:VIEWファイル(.re)</text>
</g>
<!-- md2review&#45;&gt;rv -->
<g id="edge50" class="edge">
<title>md2review&#45;&gt;rv</title>
<path fill="none" stroke="#000000" d="M394.353,-229.9211C399.8446,-227.3345 405.1153,-224.3784 410,-221 420.2415,-213.9167 416.0508,-205.4883 426,-198 438.779,-188.3818 453.7484,-180.7345 468.9364,-174.6805"/>
<polygon fill="#000000" stroke="#000000" points="470.2799,-177.9146 478.4037,-171.1135 467.8118,-171.3641 470.2799,-177.9146"/>
</g>
<!-- rvbuilder -->
<g id="node8" class="node">
<title>rvbuilder</title>
<polygon fill="none" stroke="#000000" points="394,-212 212,-212 212,-176 394,-176 394,-212"/>
<text text-anchor="middle" x="303" y="-190.3" font-family="A-OTF UD Shin Maru Go Pr6N" font-size="14.00" fill="#000000">Sphinx ReVIEW builder</text>
</g>
<!-- rvbuilder&#45;&gt;rv -->
<g id="edge52" class="edge">
<title>rvbuilder&#45;&gt;rv</title>
<path fill="none" stroke="#000000" d="M394.1593,-179.3717C417.6088,-175.6088 442.8546,-171.5576 466.3538,-167.7867"/>
<polygon fill="#000000" stroke="#000000" points="466.9884,-171.2297 476.3075,-166.1894 465.8793,-164.3181 466.9884,-171.2297"/>
</g>
<!-- gnuplot -->
<g id="node9" class="node">
<title>gnuplot</title>
<polygon fill="none" stroke="#000000" points="341.5,-374 264.5,-374 264.5,-338 341.5,-338 341.5,-374"/>
<text text-anchor="middle" x="303" y="-352.3" font-family="A-OTF UD Shin Maru Go Pr6N" font-size="14.00" fill="#000000">Gnuplot</text>
</g>
<!-- images -->
<g id="node29" class="node">
<title>images</title>
<polygon fill="#fff8dc" stroke="#000000" points="603.5,-459 507.5,-459 507.5,-423 609.5,-423 609.5,-453 603.5,-459"/>
<polyline fill="none" stroke="#000000" points="603.5,-459 603.5,-453 "/>
<polyline fill="none" stroke="#000000" points="609.5,-453 603.5,-453 "/>
<text text-anchor="middle" x="558.5" y="-437.3" font-family="A-OTF UD Shin Maru Go Pr6N" font-size="14.00" fill="#000000">画像ファイル</text>
</g>
<!-- gnuplot&#45;&gt;images -->
<g id="edge6" class="edge">
<title>gnuplot&#45;&gt;images</title>
<path fill="none" stroke="#000000" d="M341.5788,-357.9996C363.6213,-360.9021 390.6396,-367.6379 410,-383 422.1457,-392.6373 413.6352,-404.6455 426,-414 446.2315,-429.306 472.9922,-436.501 497.165,-439.7054"/>
<polygon fill="#000000" stroke="#000000" points="497.012,-443.2101 507.3398,-440.8465 497.7922,-436.2537 497.012,-443.2101"/>
</g>
<!-- graphviz -->
<g id="node10" class="node">
<title>graphviz</title>
<polygon fill="none" stroke="#000000" points="343,-590 263,-590 263,-554 343,-554 343,-590"/>
<text text-anchor="middle" x="303" y="-568.3" font-family="A-OTF UD Shin Maru Go Pr6N" font-size="14.00" fill="#000000">Graphviz</text>
</g>
<!-- graphviz&#45;&gt;images -->
<g id="edge7" class="edge">
<title>graphviz&#45;&gt;images</title>
<path fill="none" stroke="#000000" d="M343.0425,-565.492C363.6551,-561.2577 388.8322,-554.684 410,-545 455.3278,-524.263 501.404,-489.3827 529.956,-465.7936"/>
<polygon fill="#000000" stroke="#000000" points="532.4578,-468.264 537.8814,-459.1626 527.9659,-462.8952 532.4578,-468.264"/>
</g>
<!-- blockdiag -->
<g id="node11" class="node">
<title>blockdiag</title>
<polygon fill="none" stroke="#000000" points="346,-536 260,-536 260,-500 346,-500 346,-536"/>
<text text-anchor="middle" x="303" y="-514.3" font-family="A-OTF UD Shin Maru Go Pr6N" font-size="14.00" fill="#000000">Blockdiag</text>
</g>
<!-- blockdiag&#45;&gt;images -->
<g id="edge8" class="edge">
<title>blockdiag&#45;&gt;images</title>
<path fill="none" stroke="#000000" d="M346.1598,-507.9179C365.7421,-503.1364 389.138,-497.1342 410,-491 439.2875,-482.3884 471.4333,-471.7189 498.3039,-462.4505"/>
<polygon fill="#000000" stroke="#000000" points="499.6484,-465.6888 507.9498,-459.1056 497.355,-459.0751 499.6484,-465.6888"/>
</g>
<!-- aafigure -->
<g id="node12" class="node">
<title>aafigure</title>
<polygon fill="none" stroke="#000000" points="340,-482 266,-482 266,-446 340,-446 340,-482"/>
<text text-anchor="middle" x="303" y="-460.3" font-family="A-OTF UD Shin Maru Go Pr6N" font-size="14.00" fill="#000000">aafigure</text>
</g>
<!-- aafigure&#45;&gt;images -->
<g id="edge9" class="edge">
<title>aafigure&#45;&gt;images</title>
<path fill="none" stroke="#000000" d="M340.1519,-460.6556C381.2414,-456.9567 448.0936,-450.9387 497.0162,-446.5347"/>
<polygon fill="#000000" stroke="#000000" points="497.522,-450.0035 507.1679,-445.6209 496.8943,-443.0317 497.522,-450.0035"/>
</g>
<!-- plantuml -->
<g id="node13" class="node">
<title>plantuml</title>
<polygon fill="none" stroke="#000000" points="346,-428 260,-428 260,-392 346,-392 346,-428"/>
<text text-anchor="middle" x="303" y="-406.3" font-family="A-OTF UD Shin Maru Go Pr6N" font-size="14.00" fill="#000000">PlantUML</text>
</g>
<!-- plantuml&#45;&gt;images -->
<g id="edge10" class="edge">
<title>plantuml&#45;&gt;images</title>
<path fill="none" stroke="#000000" d="M346.0532,-415.2237C387.5244,-420.2554 450.6689,-427.9168 497.347,-433.5803"/>
<polygon fill="#000000" stroke="#000000" points="496.9922,-437.0628 507.341,-434.7928 497.8354,-430.1138 496.9922,-437.0628"/>
</g>
<!-- acrobat -->
<g id="node14" class="node">
<title>acrobat</title>
<polygon fill="none" stroke="#000000" points="1917.5,-523 1841.5,-523 1841.5,-487 1917.5,-487 1917.5,-523"/>
<text text-anchor="middle" x="1879.5" y="-501.3" font-family="A-OTF UD Shin Maru Go Pr6N" font-size="14.00" fill="#000000">Acrobat</text>
</g>
<!-- acrobat&#45;&gt;pdffile -->
<g id="edge40" class="edge">
<title>acrobat&#45;&gt;pdffile</title>
<path fill="none" stroke="#000000" d="M1917.7892,-505.6707C1946.5488,-504.3193 1985.5435,-498.3387 2013,-478 2058.0027,-444.6638 2082.3908,-381.0776 2093.3023,-344.2619"/>
<polygon fill="#000000" stroke="#000000" points="2096.7952,-344.7718 2096.1465,-334.1968 2090.059,-342.8682 2096.7952,-344.7718"/>
</g>
<!-- pdftoolbox -->
<g id="node15" class="node">
<title>pdftoolbox</title>
<polygon fill="none" stroke="#000000" points="1930.5,-469 1828.5,-469 1828.5,-433 1930.5,-433 1930.5,-469"/>
<text text-anchor="middle" x="1879.5" y="-447.3" font-family="A-OTF UD Shin Maru Go Pr6N" font-size="14.00" fill="#000000">pdfToolbox</text>
</g>
<!-- pdftoolbox&#45;&gt;pdffile -->
<g id="edge41" class="edge">
<title>pdftoolbox&#45;&gt;pdffile</title>
<path fill="none" stroke="#000000" d="M1930.6593,-448.8386C1956.8506,-445.7813 1988.3266,-438.9486 2013,-424 2045.5355,-404.2881 2071.1804,-367.9003 2086.0839,-342.8486"/>
<polygon fill="#000000" stroke="#000000" points="2089.117,-344.5949 2091.0815,-334.1838 2083.0533,-341.0975 2089.117,-344.5949"/>
</g>
<!-- pressready -->
<g id="node16" class="node">
<title>pressready</title>
<polygon fill="none" stroke="#000000" points="1929.5,-415 1829.5,-415 1829.5,-379 1929.5,-379 1929.5,-415"/>
<text text-anchor="middle" x="1879.5" y="-393.3" font-family="A-OTF UD Shin Maru Go Pr6N" font-size="14.00" fill="#000000">press&#45;ready</text>
</g>
<!-- pressready&#45;&gt;pdffile -->
<g id="edge42" class="edge">
<title>pressready&#45;&gt;pdffile</title>
<path fill="none" stroke="#000000" d="M1929.5195,-391.1643C1955.1096,-387.1197 1986.3893,-380.5129 2013,-370 2032.3313,-362.3629 2052.179,-350.5019 2068.0742,-339.8391"/>
<polygon fill="#000000" stroke="#000000" points="2070.2082,-342.6196 2076.4699,-334.0731 2066.2452,-336.8494 2070.2082,-342.6196"/>
</g>
<!-- reviewtemplate -->
<g id="node17" class="node">
<title>reviewtemplate</title>
<polygon fill="none" stroke="#000000" points="377.5,-320 228.5,-320 228.5,-284 377.5,-284 377.5,-320"/>
<text text-anchor="middle" x="303" y="-298.3" font-family="A-OTF UD Shin Maru Go Pr6N" font-size="14.00" fill="#000000">ReVIEW&#45;Template</text>
</g>
<!-- styfile -->
<g id="node31" class="node">
<title>styfile</title>
<polygon fill="#fff8dc" stroke="#000000" points="665,-315 446,-315 446,-279 671,-279 671,-309 665,-315"/>
<polyline fill="none" stroke="#000000" points="665,-315 665,-309 "/>
<polyline fill="none" stroke="#000000" points="671,-309 665,-309 "/>
<text text-anchor="middle" x="558.5" y="-293.3" font-family="A-OTF UD Shin Maru Go Pr6N" font-size="14.00" fill="#000000">TeXスタイルファイル(.cls, .sty)</text>
</g>
<!-- reviewtemplate&#45;&gt;styfile -->
<g id="edge11" class="edge">
<title>reviewtemplate&#45;&gt;styfile</title>
<path fill="none" stroke="#000000" d="M377.588,-300.5404C389.7642,-300.3021 402.7246,-300.0484 415.8985,-299.7906"/>
<polygon fill="#000000" stroke="#000000" points="416.0753,-303.2879 426.0049,-299.5929 415.9383,-296.2893 416.0753,-303.2879"/>
</g>
<!-- init -->
<g id="node18" class="node">
<title>init</title>
<polygon fill="#b2dfee" stroke="#000000" points="145.5,-166 14.5,-166 14.5,-130 145.5,-130 145.5,-166"/>
<text text-anchor="middle" x="80" y="-144.3" font-family="A-OTF UD Shin Maru Go Pr6N" font-size="14.00" fill="#000000">作成(review&#45;init)</text>
</g>
<!-- init&#45;&gt;rv -->
<g id="edge54" class="edge">
<title>init&#45;&gt;rv</title>
<path fill="none" stroke="#000000" d="M145.5301,-148.6847C214.7632,-149.4082 326.1046,-150.5716 415.7398,-151.5083"/>
<polygon fill="#000000" stroke="#000000" points="415.9669,-155.0107 426.003,-151.6155 416.0401,-148.0111 415.9669,-155.0107"/>
</g>
<!-- update -->
<g id="node19" class="node">
<title>update</title>
<polygon fill="#b2dfee" stroke="#000000" points="160,-112 0,-112 0,-76 160,-76 160,-112"/>
<text text-anchor="middle" x="80" y="-90.3" font-family="A-OTF UD Shin Maru Go Pr6N" font-size="14.00" fill="#000000">更新(review&#45;update)</text>
</g>
<!-- update&#45;&gt;rv -->
<g id="edge55" class="edge">
<title>update&#45;&gt;rv</title>
<path fill="none" stroke="#000000" d="M160.0901,-103.8753C229.7247,-112.4614 332.2801,-125.1066 415.9006,-135.4172"/>
<polygon fill="#000000" stroke="#000000" points="415.6476,-138.9124 426.0008,-136.6626 416.5043,-131.9651 415.6476,-138.9124"/>
</g>
<!-- preproc -->
<g id="node20" class="node">
<title>preproc</title>
<polygon fill="#b2dfee" stroke="#000000" points="393,-82 213,-82 213,-46 393,-46 393,-82"/>
<text text-anchor="middle" x="303" y="-60.3" font-family="A-OTF UD Shin Maru Go Pr6N" font-size="14.00" fill="#000000">前処理(review&#45;preproc)</text>
</g>
<!-- preproc&#45;&gt;rv -->
<g id="edge53" class="edge">
<title>preproc&#45;&gt;rv</title>
<path fill="none" stroke="#000000" d="M366.3386,-82.0761C380.7569,-86.4307 395.9605,-91.2139 410,-96 441.5649,-106.7606 476.3948,-120.053 504.3854,-131.0941"/>
<polygon fill="#000000" stroke="#000000" points="503.3981,-134.4676 513.9842,-134.8977 505.9768,-127.9599 503.3981,-134.4676"/>
</g>
<!-- vol -->
<g id="node21" class="node">
<title>vol</title>
<polygon fill="#b2dfee" stroke="#000000" points="159,-36 1,-36 1,0 159,0 159,-36"/>
<text text-anchor="middle" x="80" y="-14.3" font-family="A-OTF UD Shin Maru Go Pr6N" font-size="14.00" fill="#000000">分量確認(review&#45;vol)</text>
</g>
<!-- vol&#45;&gt;rv -->
<g id="edge56" class="edge">
<title>vol&#45;&gt;rv</title>
<path fill="none" stroke="#000000" d="M159.062,-9.6111C227.6733,-5.3168 328.5083,-6.296 410,-37 450.1194,-52.116 488.0789,-82.1544 515.5762,-107.8759"/>
<polygon fill="#000000" stroke="#000000" points="513.395,-110.6322 523.0475,-115.0003 518.2257,-105.5662 513.395,-110.6322"/>
</g>
<!-- epub -->
<g id="node22" class="node">
<title>epub</title>
<polygon fill="#b2dfee" stroke="#000000" points="965.5,-331 726.5,-331 726.5,-295 965.5,-295 965.5,-331"/>
<text text-anchor="middle" x="846" y="-309.3" font-family="A-OTF UD Shin Maru Go Pr6N" font-size="14.00" fill="#000000">rake epub (review&#45;epubmaker)</text>
</g>
<!-- epubfile -->
<g id="node35" class="node">
<title>epubfile</title>
<polygon fill="#fff8dc" stroke="#000000" points="1164.5,-361 1059.5,-361 1059.5,-325 1170.5,-325 1170.5,-355 1164.5,-361"/>
<polyline fill="none" stroke="#000000" points="1164.5,-361 1164.5,-355 "/>
<polyline fill="none" stroke="#000000" points="1170.5,-355 1164.5,-355 "/>
<text text-anchor="middle" x="1115" y="-339.3" font-family="A-OTF UD Shin Maru Go Pr6N" font-size="14.00" fill="#000000">EPUBファイル</text>
</g>
<!-- epub&#45;&gt;epubfile -->
<g id="edge13" class="edge">
<title>epub&#45;&gt;epubfile</title>
<path fill="none" stroke="#000000" d="M965.5539,-326.3331C994.2891,-329.5378 1023.9457,-332.8452 1049.1897,-335.6606"/>
<polygon fill="#000000" stroke="#000000" points="1049.0323,-339.1646 1059.3586,-336.7946 1049.8082,-332.2078 1049.0323,-339.1646"/>
</g>
<!-- web -->
<g id="node23" class="node">
<title>web</title>
<polygon fill="#b2dfee" stroke="#000000" points="959,-244 733,-244 733,-208 959,-208 959,-244"/>
<text text-anchor="middle" x="846" y="-222.3" font-family="A-OTF UD Shin Maru Go Pr6N" font-size="14.00" fill="#000000">rake web (review&#45;webmaker)</text>
</g>
<!-- htmlfile -->
<g id="node39" class="node">
<title>htmlfile</title>
<polygon fill="#fff8dc" stroke="#000000" points="1166.5,-245 1057.5,-245 1057.5,-209 1172.5,-209 1172.5,-239 1166.5,-245"/>
<polyline fill="none" stroke="#000000" points="1166.5,-245 1166.5,-239 "/>
<polyline fill="none" stroke="#000000" points="1172.5,-239 1166.5,-239 "/>
<text text-anchor="middle" x="1115" y="-223.3" font-family="A-OTF UD Shin Maru Go Pr6N" font-size="14.00" fill="#000000">HTMLファイル</text>
</g>
<!-- web&#45;&gt;htmlfile -->
<g id="edge30" class="edge">
<title>web&#45;&gt;htmlfile</title>
<path fill="none" stroke="#000000" d="M959.3006,-226.4212C989.089,-226.5319 1020.3005,-226.648 1046.891,-226.7468"/>
<polygon fill="#000000" stroke="#000000" points="1047.2088,-230.2479 1057.2218,-226.7852 1047.2349,-223.248 1047.2088,-230.2479"/>
</g>
<!-- idgxml -->
<g id="node24" class="node">
<title>idgxml</title>
<polygon fill="#b2dfee" stroke="#000000" points="1504,-199 1245,-199 1245,-163 1504,-163 1504,-199"/>
<text text-anchor="middle" x="1374.5" y="-177.3" font-family="A-OTF UD Shin Maru Go Pr6N" font-size="14.00" fill="#000000">rake idgxml (review&#45;idgxmlmaker)</text>
</g>
<!-- idgxmlfile -->
<g id="node43" class="node">
<title>idgxmlfile</title>
<polygon fill="#fff8dc" stroke="#000000" points="1704,-199 1540,-199 1540,-163 1710,-163 1710,-193 1704,-199"/>
<polyline fill="none" stroke="#000000" points="1704,-199 1704,-193 "/>
<polyline fill="none" stroke="#000000" points="1710,-193 1704,-193 "/>
<text text-anchor="middle" x="1625" y="-177.3" font-family="A-OTF UD Shin Maru Go Pr6N" font-size="14.00" fill="#000000">InDesign XMLファイル</text>
</g>
<!-- idgxml&#45;&gt;idgxmlfile -->
<g id="edge33" class="edge">
<title>idgxml&#45;&gt;idgxmlfile</title>
<path fill="none" stroke="#000000" d="M1504.1525,-181C1512.7247,-181 1521.2694,-181 1529.6256,-181"/>
<polygon fill="#000000" stroke="#000000" points="1529.7142,-184.5001 1539.7142,-181 1529.7141,-177.5001 1529.7142,-184.5001"/>
</g>
<!-- pdf -->
<g id="node25" class="node">
<title>pdf</title>
<polygon fill="#b2dfee" stroke="#000000" points="953,-147 739,-147 739,-111 953,-111 953,-147"/>
<text text-anchor="middle" x="846" y="-125.3" font-family="A-OTF UD Shin Maru Go Pr6N" font-size="14.00" fill="#000000">rake pdf (review&#45;pdfmaker)</text>
</g>
<!-- latexfile -->
<g id="node44" class="node">
<title>latexfile</title>
<polygon fill="#fff8dc" stroke="#000000" points="1167.5,-146 1056.5,-146 1056.5,-110 1173.5,-110 1173.5,-140 1167.5,-146"/>
<polyline fill="none" stroke="#000000" points="1167.5,-146 1167.5,-140 "/>
<polyline fill="none" stroke="#000000" points="1173.5,-140 1167.5,-140 "/>
<text text-anchor="middle" x="1115" y="-124.3" font-family="A-OTF UD Shin Maru Go Pr6N" font-size="14.00" fill="#000000">LaTeXファイル</text>
</g>
<!-- pdf&#45;&gt;latexfile -->
<g id="edge37" class="edge">
<title>pdf&#45;&gt;latexfile</title>
<path fill="none" stroke="#000000" d="M953.0889,-128.6019C984.4063,-128.4855 1017.7944,-128.3614 1046.0659,-128.2563"/>
<polygon fill="#000000" stroke="#000000" points="1046.25,-131.7557 1056.2369,-128.2185 1046.224,-124.7557 1046.25,-131.7557"/>
</g>
<!-- epub2html -->
<g id="node26" class="node">
<title>epub2html</title>
<polygon fill="#b2dfee" stroke="#000000" points="1449,-361 1300,-361 1300,-325 1449,-325 1449,-361"/>
<text text-anchor="middle" x="1374.5" y="-339.3" font-family="A-OTF UD Shin Maru Go Pr6N" font-size="14.00" fill="#000000">review&#45;epub2html</text>
</g>
<!-- htmlfile2 -->
<g id="node40" class="node">
<title>htmlfile2</title>
<polygon fill="#fff8dc" stroke="#000000" points="1676.5,-334 1567.5,-334 1567.5,-298 1682.5,-298 1682.5,-328 1676.5,-334"/>
<polyline fill="none" stroke="#000000" points="1676.5,-334 1676.5,-328 "/>
<polyline fill="none" stroke="#000000" points="1682.5,-328 1676.5,-328 "/>
<text text-anchor="middle" x="1625" y="-312.3" font-family="A-OTF UD Shin Maru Go Pr6N" font-size="14.00" fill="#000000">HTMLファイル</text>
</g>
<!-- epub2html&#45;&gt;htmlfile2 -->
<g id="edge16" class="edge">
<title>epub2html&#45;&gt;htmlfile2</title>
<path fill="none" stroke="#000000" d="M1449.3189,-334.9357C1483.5498,-331.2461 1523.8137,-326.9063 1557.1535,-323.3128"/>
<polygon fill="#000000" stroke="#000000" points="1557.6963,-326.7746 1567.2637,-322.2231 1556.9461,-319.815 1557.6963,-326.7746"/>
</g>
<!-- plaintext -->
<g id="node27" class="node">
<title>plaintext</title>
<polygon fill="#b2dfee" stroke="#000000" points="985,-93 707,-93 707,-57 985,-57 985,-93"/>
<text text-anchor="middle" x="846" y="-71.3" font-family="A-OTF UD Shin Maru Go Pr6N" font-size="14.00" fill="#000000">rake plaintext (review&#45;textmaker &#45;n)</text>
</g>
<!-- plaintextfile -->
<g id="node41" class="node">
<title>plaintextfile</title>
<polygon fill="#fff8dc" stroke="#000000" points="1203,-91 1021,-91 1021,-55 1209,-55 1209,-85 1203,-91"/>
<polyline fill="none" stroke="#000000" points="1203,-91 1203,-85 "/>
<polyline fill="none" stroke="#000000" points="1209,-85 1203,-85 "/>
<text text-anchor="middle" x="1115" y="-69.3" font-family="A-OTF UD Shin Maru Go Pr6N" font-size="14.00" fill="#000000">装飾なしテキストファイル</text>
</g>
<!-- plaintext&#45;&gt;plaintextfile -->
<g id="edge45" class="edge">
<title>plaintext&#45;&gt;plaintextfile</title>
<path fill="none" stroke="#000000" d="M985.2276,-73.9649C993.7949,-73.9012 1002.3366,-73.8376 1010.7134,-73.7754"/>
<polygon fill="#000000" stroke="#000000" points="1010.8664,-77.2744 1020.8401,-73.7001 1010.8143,-70.2746 1010.8664,-77.2744"/>
</g>
<!-- text -->
<g id="node28" class="node">
<title>text</title>
<polygon fill="#b2dfee" stroke="#000000" points="958,-39 734,-39 734,-3 958,-3 958,-39"/>
<text text-anchor="middle" x="846" y="-17.3" font-family="A-OTF UD Shin Maru Go Pr6N" font-size="14.00" fill="#000000">rake text (review&#45;textmaker)</text>
</g>
<!-- textfile -->
<g id="node42" class="node">
<title>textfile</title>
<polygon fill="#fff8dc" stroke="#000000" points="1203,-37 1021,-37 1021,-1 1209,-1 1209,-31 1203,-37"/>
<polyline fill="none" stroke="#000000" points="1203,-37 1203,-31 "/>
<polyline fill="none" stroke="#000000" points="1209,-31 1203,-31 "/>
<text text-anchor="middle" x="1115" y="-15.3" font-family="A-OTF UD Shin Maru Go Pr6N" font-size="14.00" fill="#000000">装飾付きテキストファイル</text>
</g>
<!-- text&#45;&gt;textfile -->
<g id="edge47" class="edge">
<title>text&#45;&gt;textfile</title>
<path fill="none" stroke="#000000" d="M958.1323,-20.1663C975.6063,-20.0364 993.5984,-19.9026 1010.8841,-19.7741"/>
<polygon fill="#000000" stroke="#000000" points="1010.997,-23.2735 1020.9707,-19.6991 1010.9449,-16.2736 1010.997,-23.2735"/>
</g>
<!-- images&#45;&gt;images -->
<!-- cssfile -->
<g id="node30" class="node">
<title>cssfile</title>
<polygon fill="#fff8dc" stroke="#000000" points="621,-387 490,-387 490,-351 627,-351 627,-381 621,-387"/>
<polyline fill="none" stroke="#000000" points="621,-387 621,-381 "/>
<polyline fill="none" stroke="#000000" points="627,-381 621,-381 "/>
<text text-anchor="middle" x="558.5" y="-365.3" font-family="A-OTF UD Shin Maru Go Pr6N" font-size="14.00" fill="#000000">CSSファイル(.css)</text>
</g>
<!-- cssfile&#45;&gt;cssfile -->
<!-- styfile&#45;&gt;styfile -->
<!-- yamlfile -->
<g id="node32" class="node">
<title>yamlfile</title>
<polygon fill="#fff8dc" stroke="#000000" points="643.5,-243 467.5,-243 467.5,-207 649.5,-207 649.5,-237 643.5,-243"/>
<polyline fill="none" stroke="#000000" points="643.5,-243 643.5,-237 "/>
<polyline fill="none" stroke="#000000" points="649.5,-237 643.5,-237 "/>
<text text-anchor="middle" x="558.5" y="-221.3" font-family="A-OTF UD Shin Maru Go Pr6N" font-size="14.00" fill="#000000">設定YAMLファイル(.yml)</text>
</g>
<!-- yamlfile&#45;&gt;yamlfile -->
<!-- rv&#45;&gt;epub -->
<g id="edge12" class="edge">
<title>rv&#45;&gt;epub</title>
<path fill="none" stroke="#000000" d="M691,-198C708.5982,-216.3957 690.1524,-233.9145 707,-253 721.9335,-269.9171 742.4834,-282.2355 763.2033,-291.1371"/>
<polygon fill="#000000" stroke="#000000" points="762.1332,-294.4798 772.7157,-294.9908 764.7616,-287.992 762.1332,-294.4798"/>
</g>
<!-- rv&#45;&gt;web -->
<g id="edge29" class="edge">
<title>rv&#45;&gt;web</title>
<path fill="none" stroke="#000000" d="M690.9991,-186.6432C716.2371,-193.0515 741.9406,-199.578 764.972,-205.4259"/>
<polygon fill="#000000" stroke="#000000" points="764.1999,-208.8409 774.7537,-207.9096 765.9227,-202.0562 764.1999,-208.8409"/>
</g>
<!-- rv&#45;&gt;idgxml -->
<g id="edge32" class="edge">
<title>rv&#45;&gt;idgxml</title>
<path fill="none" stroke="#000000" d="M690.9966,-157.5465C840.4825,-162.6759 1082.5726,-170.9829 1234.9138,-176.2103"/>
<polygon fill="#000000" stroke="#000000" points="1234.8754,-179.7109 1244.9896,-176.556 1235.1155,-172.715 1234.8754,-179.7109"/>
</g>
<!-- rv&#45;&gt;pdf -->
<g id="edge36" class="edge">
<title>rv&#45;&gt;pdf</title>
<path fill="none" stroke="#000000" d="M690.995,-141.9395C703.6505,-140.8831 716.423,-139.8169 728.917,-138.7739"/>
<polygon fill="#000000" stroke="#000000" points="729.2359,-142.2595 738.9101,-137.9397 728.6536,-135.2838 729.2359,-142.2595"/>
</g>
<!-- rv&#45;&gt;plaintext -->
<g id="edge43" class="edge">
<title>rv&#45;&gt;plaintext</title>
<path fill="none" stroke="#000000" d="M663.2598,-115.0006C677.8534,-110.3007 692.7329,-105.8158 707,-102 715.8073,-99.6445 724.9799,-97.4048 734.2272,-95.2968"/>
<polygon fill="#000000" stroke="#000000" points="735.2753,-98.6493 744.277,-93.0619 733.7557,-91.8163 735.2753,-98.6493"/>
</g>
<!-- rv&#45;&gt;text -->
<g id="edge44" class="edge">
<title>rv&#45;&gt;text</title>
<path fill="none" stroke="#000000" d="M601.6477,-115.0044C629.7998,-92.1964 668.3768,-64.4963 707,-48 712.5035,-45.6494 718.2172,-43.5017 724.0514,-41.5396"/>
<polygon fill="#000000" stroke="#000000" points="725.4851,-44.7574 733.9678,-38.4096 723.3781,-38.082 725.4851,-44.7574"/>
</g>
<!-- rv&#45;&gt;rv -->
<!-- pdfprint -->
<g id="node47" class="node">
<title>pdfprint</title>
<polygon fill="#ff7f50" stroke="#000000" points="2250,-355 2188,-355 2188,-331 2250,-331 2262,-343 2250,-355"/>
<text text-anchor="middle" x="2225" y="-339.3" font-family="A-OTF UD Shin Maru Go Pr6N" font-size="14.00" fill="#000000">印刷製本</text>
</g>
<!-- pdffile&#45;&gt;pdfprint -->
<g id="edge27" class="edge">
<title>pdffile&#45;&gt;pdfprint</title>
<path fill="none" stroke="#000000" d="M2152.2176,-327.2159C2160.6721,-329.0494 2169.3935,-330.9408 2177.7335,-332.7494"/>
<polygon fill="#000000" stroke="#000000" points="2177.1589,-336.2061 2187.6736,-334.9051 2178.6426,-329.3651 2177.1589,-336.2061"/>
</g>
<!-- pdfebook -->
<g id="node48" class="node">
<title>pdfebook</title>
<polygon fill="#ff7f50" stroke="#000000" points="2250,-301 2188,-301 2188,-277 2250,-277 2262,-289 2250,-301"/>
<text text-anchor="middle" x="2225" y="-285.3" font-family="A-OTF UD Shin Maru Go Pr6N" font-size="14.00" fill="#000000">電子配布</text>
</g>
<!-- pdffile&#45;&gt;pdfebook -->
<g id="edge28" class="edge">
<title>pdffile&#45;&gt;pdfebook</title>
<path fill="none" stroke="#000000" d="M2152.2176,-304.7841C2160.6721,-302.9506 2169.3935,-301.0592 2177.7335,-299.2506"/>
<polygon fill="#000000" stroke="#000000" points="2178.6426,-302.6349 2187.6736,-297.0949 2177.1589,-295.7939 2178.6426,-302.6349"/>
</g>
<!-- epubfile&#45;&gt;versacss -->
<g id="edge14" class="edge">
<title>epubfile&#45;&gt;versacss</title>
<path fill="none" stroke="#000000" d="M1170.5981,-357.1586C1193.4785,-362.3005 1220.3499,-367.4672 1245,-370 1420.9309,-388.0769 1625.5012,-372.8998 1753.7485,-359.0446"/>
<polygon fill="#000000" stroke="#000000" points="1754.4381,-362.4901 1763.9978,-357.9226 1753.6763,-355.5317 1754.4381,-362.4901"/>
</g>
<!-- epubfile&#45;&gt;kindlegen -->
<g id="edge23" class="edge">
<title>epubfile&#45;&gt;kindlegen</title>
<path fill="none" stroke="#000000" d="M1153.0114,-361.017C1199.1684,-382.8948 1277.0368,-419.8036 1327.0749,-443.521"/>
<polygon fill="#000000" stroke="#000000" points="1325.8514,-446.8144 1336.3869,-447.9348 1328.8497,-440.4889 1325.8514,-446.8144"/>
</g>
<!-- epubfile&#45;&gt;epub2html -->
<g id="edge15" class="edge">
<title>epubfile&#45;&gt;epub2html</title>
<path fill="none" stroke="#000000" d="M1170.6693,-343C1205.2565,-343 1250.4057,-343 1289.4182,-343"/>
<polygon fill="#000000" stroke="#000000" points="1289.718,-346.5001 1299.718,-343 1289.7179,-339.5001 1289.718,-346.5001"/>
</g>
<!-- toritugi -->
<g id="node50" class="node">
<title>toritugi</title>
<polygon fill="#ff7f50" stroke="#000000" points="1435,-301 1302,-301 1302,-277 1435,-277 1447,-289 1435,-301"/>
<text text-anchor="middle" x="1374.5" y="-285.3" font-family="A-OTF UD Shin Maru Go Pr6N" font-size="14.00" fill="#000000">各電子ブックストア</text>
</g>
<!-- epubfile&#45;&gt;toritugi -->
<g id="edge26" class="edge">
<title>epubfile&#45;&gt;toritugi</title>
<path fill="none" stroke="#000000" d="M1170.6693,-331.4156C1205.9529,-324.0734 1252.2279,-314.4439 1291.7669,-306.2161"/>
<polygon fill="#000000" stroke="#000000" points="1292.5861,-309.6207 1301.6633,-304.1568 1291.1599,-302.7675 1292.5861,-309.6207"/>
</g>
<!-- markdown -->
<g id="node36" class="node">
<title>markdown</title>
<polygon fill="#fff8dc" stroke="#000000" points="149,-274 5,-274 5,-238 155,-238 155,-268 149,-274"/>
<polyline fill="none" stroke="#000000" points="149,-274 149,-268 "/>
<polyline fill="none" stroke="#000000" points="155,-268 149,-268 "/>
<text text-anchor="middle" x="80" y="-252.3" font-family="A-OTF UD Shin Maru Go Pr6N" font-size="14.00" fill="#000000">Markdownファイル</text>
</g>
<!-- markdown&#45;&gt;md2review -->
<g id="edge49" class="edge">
<title>markdown&#45;&gt;md2review</title>
<path fill="none" stroke="#000000" d="M155.1867,-253.3027C164.9545,-252.9523 175.1397,-252.5869 185.3939,-252.2191"/>
<polygon fill="#000000" stroke="#000000" points="185.7903,-255.7072 195.6583,-251.8508 185.5392,-248.7117 185.7903,-255.7072"/>
</g>
<!-- sphinx -->
<g id="node37" class="node">
<title>sphinx</title>
<polygon fill="#fff8dc" stroke="#000000" points="146.5,-220 7.5,-220 7.5,-184 152.5,-184 152.5,-214 146.5,-220"/>
<polyline fill="none" stroke="#000000" points="146.5,-220 146.5,-214 "/>
<polyline fill="none" stroke="#000000" points="152.5,-214 146.5,-214 "/>
<text text-anchor="middle" x="80" y="-198.3" font-family="A-OTF UD Shin Maru Go Pr6N" font-size="14.00" fill="#000000">Sphinx rstファイル</text>
</g>
<!-- sphinx&#45;&gt;rvbuilder -->
<g id="edge51" class="edge">
<title>sphinx&#45;&gt;rvbuilder</title>
<path fill="none" stroke="#000000" d="M152.71,-199.3916C168.2878,-198.8327 185.0196,-198.2325 201.4603,-197.6427"/>
<polygon fill="#000000" stroke="#000000" points="201.7783,-201.1336 211.6464,-197.2773 201.5273,-194.1381 201.7783,-201.1336"/>
</g>
<!-- amazon -->
<g id="node49" class="node">
<title>amazon</title>
<polygon fill="#ff7f50" stroke="#000000" points="1951,-571 1796,-571 1796,-547 1951,-547 1963,-559 1951,-571"/>
<text text-anchor="middle" x="1879.5" y="-555.3" font-family="A-OTF UD Shin Maru Go Pr6N" font-size="14.00" fill="#000000">Amazon Kindleストア</text>
</g>
<!-- mobi&#45;&gt;amazon -->
<g id="edge25" class="edge">
<title>mobi&#45;&gt;amazon</title>
<path fill="none" stroke="#000000" d="M1680.1618,-513.9894C1700.7275,-520.0499 1724.3368,-526.6857 1746,-532 1758.936,-535.1734 1772.6426,-538.2574 1786.1544,-541.1379"/>
<polygon fill="#000000" stroke="#000000" points="1785.4385,-544.5638 1795.9449,-543.1976 1786.8797,-537.7138 1785.4385,-544.5638"/>
</g>
<!-- website -->
<g id="node51" class="node">
<title>website</title>
<polygon fill="#ff7f50" stroke="#000000" points="1409.5,-247 1327.5,-247 1327.5,-223 1409.5,-223 1421.5,-235 1409.5,-247"/>
<text text-anchor="middle" x="1374.5" y="-231.3" font-family="A-OTF UD Shin Maru Go Pr6N" font-size="14.00" fill="#000000">Webサイト</text>
</g>
<!-- htmlfile&#45;&gt;website -->
<g id="edge31" class="edge">
<title>htmlfile&#45;&gt;website</title>
<path fill="none" stroke="#000000" d="M1172.5915,-228.7755C1215.721,-230.1051 1274.4477,-231.9155 1317.4467,-233.2411"/>
<polygon fill="#000000" stroke="#000000" points="1317.3658,-236.7402 1327.4689,-233.5501 1317.5815,-229.7435 1317.3658,-236.7402"/>
</g>
<!-- htmlfile2&#45;&gt;vivliocss -->
<g id="edge17" class="edge">
<title>htmlfile2&#45;&gt;vivliocss</title>
<path fill="none" stroke="#000000" d="M1659.9324,-297.9405C1683.6781,-286.2858 1716.093,-271.5687 1746,-262 1758.7767,-257.9121 1772.4465,-254.3101 1785.9863,-251.1794"/>
<polygon fill="#000000" stroke="#000000" points="1786.8128,-254.5811 1795.8078,-248.9828 1785.2849,-247.7498 1786.8128,-254.5811"/>
</g>
<!-- htmlfile2&#45;&gt;versacss -->
<g id="edge18" class="edge">
<title>htmlfile2&#45;&gt;versacss</title>
<path fill="none" stroke="#000000" d="M1682.75,-322.1267C1703.9536,-324.3762 1728.871,-327.0197 1753.714,-329.6553"/>
<polygon fill="#000000" stroke="#000000" points="1753.6548,-333.1686 1763.9683,-330.7432 1754.3934,-326.2077 1753.6548,-333.1686"/>
</g>
<!-- htmlfile2&#45;&gt;ahcss -->
<g id="edge19" class="edge">
<title>htmlfile2&#45;&gt;ahcss</title>
<path fill="none" stroke="#000000" d="M1682.75,-309.8733C1698.8487,-308.1654 1717.0882,-306.2303 1735.8106,-304.2441"/>
<polygon fill="#000000" stroke="#000000" points="1736.3674,-307.7047 1745.9423,-303.1692 1735.6289,-300.7438 1736.3674,-307.7047"/>
</g>
<!-- morph -->
<g id="node46" class="node">
<title>morph</title>
<polygon fill="#ff7f50" stroke="#000000" points="1456.5,-85 1280.5,-85 1280.5,-61 1456.5,-61 1468.5,-73 1456.5,-85"/>
<text text-anchor="middle" x="1374.5" y="-69.3" font-family="A-OTF UD Shin Maru Go Pr6N" font-size="14.00" fill="#000000">形態素解析や文体チェック</text>
</g>
<!-- plaintextfile&#45;&gt;morph -->
<g id="edge46" class="edge">
<title>plaintextfile&#45;&gt;morph</title>
<path fill="none" stroke="#000000" d="M1209.0524,-73C1228.9058,-73 1249.9683,-73 1270.1746,-73"/>
<polygon fill="#000000" stroke="#000000" points="1270.333,-76.5001 1280.3329,-73 1270.3329,-69.5001 1270.333,-76.5001"/>
</g>
<!-- handdtp -->
<g id="node45" class="node">
<title>handdtp</title>
<polygon fill="#ff7f50" stroke="#000000" points="1471.5,-31 1265.5,-31 1265.5,-7 1471.5,-7 1483.5,-19 1471.5,-31"/>
<text text-anchor="middle" x="1374.5" y="-15.3" font-family="A-OTF UD Shin Maru Go Pr6N" font-size="14.00" fill="#000000">出版社や手動DTPへの提出草稿</text>
</g>
<!-- textfile&#45;&gt;handdtp -->
<g id="edge48" class="edge">
<title>textfile&#45;&gt;handdtp</title>
<path fill="none" stroke="#000000" d="M1209.0524,-19C1224.0444,-19 1239.7259,-19 1255.2076,-19"/>
<polygon fill="#000000" stroke="#000000" points="1255.3432,-22.5001 1265.3432,-19 1255.3431,-15.5001 1255.3432,-22.5001"/>
</g>
<!-- idgxmlfile&#45;&gt;indesign -->
<g id="edge34" class="edge">
<title>idgxmlfile&#45;&gt;indesign</title>
<path fill="none" stroke="#000000" d="M1710.0986,-181C1738.5407,-181 1770.15,-181 1798.288,-181"/>
<polygon fill="#000000" stroke="#000000" points="1798.4854,-184.5001 1808.4853,-181 1798.4853,-177.5001 1798.4854,-184.5001"/>
</g>
<!-- latexfile&#45;&gt;latex -->
<g id="edge38" class="edge">
<title>latexfile&#45;&gt;latex</title>
<path fill="none" stroke="#000000" d="M1173.5604,-127.7743C1198.6329,-127.6777 1228.842,-127.5613 1258.1318,-127.4484"/>
<polygon fill="#000000" stroke="#000000" points="1258.4573,-130.9473 1268.4437,-127.4087 1258.4302,-123.9474 1258.4573,-130.9473"/>
</g>
</g>
</svg>
